<?xml version="1.0" standalone="no"?>
<!DOCTYPE svg PUBLIC "-//W3C//DTD SVG 1.1//EN" "http://www.w3.org/Graphics/SVG/1.1/DTD/svg11.dtd" >
<svg xmlns="http://www.w3.org/2000/svg">
<metadata></metadata>
<defs>
<font id="berthold_akzidenz_grotesk_bMd" horiz-adv-x="1150" >
<font-face units-per-em="2048" ascent="1638" descent="-410" />
<missing-glyph horiz-adv-x="555" />
<glyph unicode="&#xfb01;" d="M8 850v176h154v117q0 55 4 109.5t34.5 97.5t98.5 70.5t193 27.5q37 0 70.5 -2t68.5 -6v-209q-31 6 -78 6q-53 0 -82 -13.5t-43 -35t-17 -48t-3 -55.5v-59h223v-176h-223v-850h-246v850h-154zM774 0v1026h244v-1026h-244zM774 1186v248h244v-248h-244z" />
<glyph unicode="&#xfb02;" d="M8 850v176h154v117q0 55 4 109.5t34.5 97.5t98.5 70.5t193 27.5q37 0 70.5 -2t68.5 -6v-209q-31 6 -78 6q-53 0 -82 -13.5t-43 -35t-17 -48t-3 -55.5v-59h223v-176h-223v-850h-246v850h-154zM774 0v1448h248v-1448h-248z" />
<glyph horiz-adv-x="2048" />
<glyph horiz-adv-x="2048" />
<glyph unicode="&#xd;" horiz-adv-x="555" />
<glyph unicode=" "  horiz-adv-x="555" />
<glyph unicode="&#x09;" horiz-adv-x="555" />
<glyph unicode="&#xa0;" horiz-adv-x="555" />
<glyph unicode="!" horiz-adv-x="512" d="M164 0v283h268v-283h-268zM164 893v553h268v-553l-78 -533h-114z" />
<glyph unicode="&#x22;" horiz-adv-x="811" d="M66 1413q0 53 37.5 87t97.5 34q43 0 66.5 -18.5t31.5 -28.5q16 -23 18 -47.5t-2 -46.5l-94 -531h-55l-96 506q-2 12 -3 23.5t-1 21.5zM492 1413q0 53 37.5 87t97.5 34q29 0 48 -8t31.5 -18.5t18.5 -20.5t8 -12q10 -18 11 -39t-1 -43l-96 -531h-55l-96 506q-2 12 -3 23.5 t-1 21.5z" />
<glyph unicode="#" horiz-adv-x="1366" d="M86 438v203h279l24 195h-256v204h283l55 408h213l-57 -408h200l56 408h207l-56 -408h240v-204h-266l-29 -195h252v-203h-277l-63 -438h-207l64 438h-203l-62 -438h-209l62 438h-250zM569 641h205l27 195h-203z" />
<glyph unicode="$" horiz-adv-x="1280" d="M74 272l207 158q70 -94 140.5 -137t125.5 -47v391q-23 2 -64 7t-89 19.5t-98 39t-91 64.5t-67.5 98.5t-26.5 140.5q0 59 18 119.5t53 111.5q41 57 94.5 93t105.5 56.5t96 28.5t69 12v222h188v-222q29 -4 78 -12t109.5 -30.5t126 -65.5t127.5 -115l-193 -153 q-35 43 -66.5 69.5t-62.5 43t-60.5 24.5t-58.5 16v-327q76 -14 158 -39t150.5 -73t112.5 -124t44 -192q0 -37 -5 -76t-20.5 -81t-43 -83t-70.5 -80q-84 -74 -169 -97.5t-157 -31.5v-233h-188v233q-49 8 -108.5 22.5t-121 43t-124 78t-119.5 128.5zM381 1047q0 -53 37 -87 t129 -51v295q-82 -12 -124 -57t-42 -100zM735 242q86 16 141.5 67t55.5 123q0 78 -55.5 119t-141.5 57v-366z" />
<glyph unicode="%" horiz-adv-x="1792" d="M53 926q0 31 2 82t15.5 108.5t42 113.5t82.5 99q41 33 92 49.5t104 16.5q49 0 96.5 -13.5t85.5 -42.5q53 -39 82 -94t43.5 -112.5t17.5 -109.5t3 -85q0 -63 -4 -126.5t-27 -125.5q-41 -117 -120 -171t-185 -54q-47 0 -91 11t-83 38q-59 39 -90 97.5t-46.5 118.5 t-17.5 114.5t-2 85.5zM238 918q0 -31 2 -81.5t16 -98.5t45 -82.5t88 -34.5q55 0 84 33.5t43 82.5t16.5 103.5t2.5 95.5q0 35 -2.5 87t-16.5 100t-44 82t-85 34t-85 -35t-44 -85t-17 -105.5t-3 -95.5zM487 -10l648 1396l137 -63l-643 -1397zM1075 459q0 27 2 78t16.5 109.5 t45 116.5t88.5 99q41 29 89 43.5t97 14.5q94 0 164 -46q61 -39 94 -97t48.5 -117.5t18.5 -114.5t3 -88q0 -66 -6 -131.5t-29 -126.5q-43 -113 -122 -163t-177 -50q-53 0 -102.5 15t-90.5 46q-53 39 -80.5 95.5t-41 113.5t-15.5 111.5t-2 91.5zM1260 442q0 -51 5 -104t20 -96 t44 -70t78 -27q55 0 85 31t44 77t17 99.5t3 98.5q0 37 -2 90t-16 102t-44 84t-85 35t-92 -41q-23 -25 -33 -58.5t-14 -68.5q-6 -39 -8 -77t-2 -75z" />
<glyph unicode="&#x26;" horiz-adv-x="1323" d="M88 377q0 78 24.5 141.5t67.5 114.5t100.5 93t122.5 79q-20 31 -41.5 81t-21.5 132q0 80 26.5 143.5t71.5 106.5t105.5 65.5t130.5 22.5q80 0 142.5 -26.5t104.5 -71t64.5 -99.5t22.5 -110q0 -39 -12.5 -85t-44 -91.5t-84 -86.5t-132.5 -67q10 -18 37 -60.5t57.5 -86.5 t57 -81.5t37.5 -48.5q45 66 57 118t18 110h236q-18 -131 -69.5 -238.5t-98.5 -167.5q23 -23 52.5 -43t92.5 -20h20.5t24.5 4v-205q-23 -2 -36 -3t-24 -2t-20.5 -1h-23.5q-55 0 -95 6t-70 17.5t-51.5 26.5t-41.5 34q-70 -47 -148.5 -78t-199.5 -31q-135 0 -224.5 42 t-141.5 104.5t-72.5 133t-20.5 128.5zM336 393q0 -43 17.5 -81t47 -67.5t70.5 -46t90 -16.5q23 0 78 11.5t121 66.5l-246 363q-35 -20 -66.5 -42t-56 -49.5t-40 -61.5t-15.5 -77zM571 1055q0 -41 18.5 -79t43.5 -77q23 8 50.5 18.5t52 28t41 43t16.5 64.5q0 47 -31 77.5 t-80 30.5q-47 0 -79 -27.5t-32 -78.5z" />
<glyph unicode="'" horiz-adv-x="425" d="M88 1391.5v21.5q0 33 12.5 55.5t33 37t43 21.5t44.5 7q45 0 69.5 -19.5t31.5 -27.5q16 -23 17 -47.5t-1 -46.5l-96 -531h-56l-96 506q-2 12 -2 23.5z" />
<glyph unicode="(" horiz-adv-x="724" d="M96 711q0 160 41 284.5t119 245.5q70 106 157 198.5t187 170.5l72 -103q-14 -16 -42 -45.5t-59.5 -78t-64.5 -116t-60 -155.5q-35 -121 -49 -250t-14 -231q0 -236 81 -420t208 -295l-60 -102q-66 37 -125 87t-107 102t-85 102.5t-57 87.5q-88 145 -115 279t-27 239z" />
<glyph unicode=")" horiz-adv-x="724" d="M53 -84q14 14 42 45t59.5 79t64.5 114.5t60 156.5q35 119 49 248t14 234q0 233 -81 418.5t-208 295.5l60 103q68 -37 126 -87t107 -103.5t85 -103.5t56 -85q86 -145 114 -278.5t28 -239.5q0 -160 -41 -286t-119 -245q-70 -109 -157 -200t-187 -168z" />
<glyph unicode="*" horiz-adv-x="768" d="M72 1169l45 136l159 -52l66 -55l-33 84v164h144v-164l-35 -84l65 55l162 62l51 -131l-170 -66l-88 10l78 -47l111 -141l-111 -86l-110 137l-25 90l-19 -90l-100 -137l-115 86l101 141l61 37h-71z" />
<glyph unicode="+" horiz-adv-x="1366" d="M86 492v208h494v494h211v-494h489v-208h-489v-492h-211v492h-494z" />
<glyph unicode="," horiz-adv-x="425" d="M76 0v281h272v-248q0 -43 -1 -78t-8 -63.5t-22.5 -52t-42.5 -48.5q-41 -35 -82.5 -49t-99.5 -27v119q43 6 66.5 27.5t33 47t10.5 51.5t1 40h-127z" />
<glyph unicode="-" horiz-adv-x="724" d="M109 528v230h507v-230h-507z" />
<glyph unicode="." horiz-adv-x="425" d="M76 0v281h270v-281h-270z" />
<glyph unicode="/" horiz-adv-x="980" d="M27 0l688 1446h241l-686 -1446h-243z" />
<glyph unicode="0" d="M74 684q0 53 3 119.5t15 137.5t37 140.5t68 128.5q57 78 156.5 136.5t234.5 58.5q45 0 96 -9.5t100.5 -32t96.5 -61t88 -98.5q39 -59 62.5 -126.5t34.5 -135.5t14 -130.5t3 -113.5q0 -92 -9 -192t-41 -192.5t-91 -168t-158 -120.5q-49 -23 -102 -33t-107 -10 q-90 0 -156.5 23.5t-115.5 56t-79.5 69.5t-49.5 66q-33 51 -52.5 111.5t-30.5 124t-14 128t-3 123.5zM340 680q0 -84 6 -168t30.5 -151.5t73 -109.5t132.5 -42q74 0 120 33.5t71.5 97t35.5 152.5t10 198q0 238 -52 364t-181 126q-84 0 -132 -45t-74 -116t-33 -161t-7 -178z " />
<glyph unicode="1" d="M154 961v157h26q49 0 103.5 5t103.5 30t90 78t62 151h204v-1382h-251v791q0 49 -2.5 81.5t-12.5 52t-32.5 28t-65.5 8.5h-225z" />
<glyph unicode="2" d="M117 0v199q66 45 130 97t120.5 102.5t103.5 95.5t78 75q29 29 63.5 69t65.5 89t52.5 108.5t21.5 127.5q0 39 -10.5 76.5t-33 66.5t-56.5 46t-83 17q-76 0 -115.5 -35.5t-58 -87t-19.5 -105.5t-1 -91l-258 22q0 145 38 240.5t78 142.5q57 66 150.5 108t206.5 42 q98 0 180 -31t140.5 -87t91 -136t32.5 -178q0 -84 -23.5 -157t-63.5 -136.5t-92 -119.5t-110 -107q-12 -10 -47.5 -41t-81 -68t-90.5 -74t-73 -57h604v-213h-940z" />
<glyph unicode="3" d="M96 453h273q-2 -10 -2 -20.5v-22.5q0 -88 56 -146.5t161 -58.5q57 0 98 19.5t67.5 50t38 69.5t11.5 80q0 55 -23.5 101t-70.5 73q-49 29 -148 29l-68 -2v215q63 -2 82 -2h31t39 4t55.5 20.5t50 48t21.5 90.5q0 72 -45 124.5t-131 52.5q-68 0 -107 -30t-59 -69 t-25.5 -76.5t-5.5 -56.5l-270 58q4 25 12 59.5t24.5 74.5t44 79.5t70.5 76.5q61 53 147.5 82t176.5 29q55 0 131 -15.5t144.5 -57.5t116.5 -112.5t48 -181.5q0 -49 -10 -86t-22.5 -63.5t-24.5 -42t-18 -21.5q-39 -43 -79 -58t-75 -26q41 -8 87 -29.5t85 -61.5t64.5 -99 t25.5 -141q0 -90 -32.5 -168t-95 -136.5t-155 -91t-210.5 -32.5q-104 0 -196.5 29.5t-152.5 84.5q-47 43 -91 130t-44 227z" />
<glyph unicode="4" d="M35 319v181l606 884h250v-856h180v-209h-180v-319h-250v319h-606zM299 528h342l14 549z" />
<glyph unicode="5" d="M74 387l286 21q4 -106 62.5 -155.5t136.5 -49.5q74 0 121 33q47 31 75.5 97t28.5 148q0 129 -68.5 194.5t-160.5 65.5q-72 0 -127 -31.5t-80 -97.5l-231 15l98 759h768l-20 -231h-539l-47 -305q47 47 116.5 74.5t149.5 27.5q92 0 169 -32.5t133 -93t87 -145.5t31 -189 q0 -106 -34 -199.5t-100.5 -162.5t-161.5 -108.5t-218 -39.5q-70 0 -136.5 13t-125.5 44q-72 39 -114 88t-63.5 98t-27.5 93t-8 69z" />
<glyph unicode="6" d="M98 651q0 47 4 122t20.5 159t49.5 168t90 152.5t143.5 110.5t206.5 42q135 0 226.5 -55.5t138.5 -126.5q31 -49 42 -91t15 -71l-262 -37q-2 47 -18.5 76.5t-41 47t-52 25t-50.5 7.5q-76 0 -122 -40t-72.5 -103.5t-36.5 -139.5t-14 -145q111 139 290 139q74 0 144.5 -25.5 t127 -79t90.5 -134.5t34 -191q0 -106 -35 -194.5t-97.5 -152t-147.5 -98t-185 -34.5q-76 0 -136.5 18t-107.5 46t-81 62.5t-56 69.5q-33 49 -53.5 107.5t-33 121t-16.5 125t-4 119.5zM389 436q0 -16 4 -53t24.5 -76t60.5 -67.5t112 -28.5q57 0 97 20.5t62.5 52t33 71.5 t10.5 79q0 102 -52.5 163.5t-144.5 61.5q-53 0 -92 -18t-64.5 -50t-38 -72t-12.5 -83z" />
<glyph unicode="7" d="M131 1145v241h918v-223q-201 -250 -318 -541.5t-147 -621.5h-338q16 98 41.5 222t91.5 284q39 96 80 175t86 153.5t97 149.5t114 161h-625z" />
<glyph unicode="8" d="M59 397q0 82 26 138.5t61.5 94.5t74.5 59.5t66 33.5q-55 27 -90 65.5t-54.5 80.5t-26.5 83t-7 72q0 80 32.5 149.5t94 121t149.5 81t199 29.5q106 0 193 -27.5t148.5 -79t95.5 -124t34 -162.5q0 -92 -41.5 -167t-139.5 -122q119 -59 166 -145t47 -181q0 -94 -38.5 -170.5 t-107.5 -131t-164 -84t-208 -29.5q-119 0 -213 31.5t-160.5 87t-101.5 131t-35 165.5zM348 406q0 -88 59.5 -142.5t174.5 -54.5q100 0 165.5 50t65.5 149q0 8 -4 40.5t-26.5 66.5t-68.5 61.5t-132 27.5q-82 0 -129 -24.5t-70 -58.5t-29 -66.5t-6 -48.5zM371 993 q0 -23 7 -54.5t29.5 -60t64.5 -48t112 -19.5q61 0 100 17.5t61.5 44t31.5 59.5t9 61q0 59 -20.5 96t-51 56.5t-66 27t-66.5 7.5q-66 0 -107 -18.5t-64.5 -46.5t-31.5 -60.5t-8 -61.5z" />
<glyph unicode="9" d="M102 330l281 41l8 -40t15 -38q16 -35 53 -60.5t90 -25.5q68 0 112 42t69.5 103.5t35.5 132t10 129.5q-29 -41 -98.5 -80.5t-177.5 -39.5q-82 0 -155 27.5t-126 81.5t-85 135t-32 190q0 123 40 213t106.5 148.5t150.5 87t172 28.5q63 0 127 -14.5t117 -47.5 q90 -55 139.5 -143t72 -177t26.5 -166t4 -112q0 -373 -143.5 -568t-395.5 -195q-84 0 -144.5 20.5t-103.5 49t-67.5 58t-36.5 48.5q-33 51 -46.5 100t-17.5 72zM369 954q0 -104 50 -171.5t144 -67.5q8 0 40 4t65.5 25.5t60.5 66.5t27 129q0 100 -46 171t-147 71 q-35 0 -68.5 -12.5t-62.5 -40t-46 -70.5t-17 -105z" />
<glyph unicode=":" horiz-adv-x="512" d="M160 0v281h270v-281h-270zM160 762v280h270v-280h-270z" />
<glyph unicode=";" horiz-adv-x="512" d="M160 0v281h272v-261q0 -43 -1 -75.5t-7 -58t-20.5 -48t-41.5 -45.5q-47 -41 -100 -56.5t-88 -23.5v123q12 2 29.5 5t40.5 24q35 29 39 62.5t4 72.5h-127zM160 760v282h272v-282h-272z" />
<glyph unicode="&#x3c;" horiz-adv-x="1366" d="M0 614v213l1366 625v-231l-1083 -500l1083 -498v-229z" />
<glyph unicode="=" horiz-adv-x="1366" d="M0 299v211h1366v-211h-1366zM0 684v211h1366v-211h-1366z" />
<glyph unicode="&#x3e;" horiz-adv-x="1366" d="M0 -6v229l1081 498l-1081 500v231l1366 -625v-213z" />
<glyph unicode="?" d="M109 997q8 141 58 232.5t121.5 144.5t155.5 74.5t162 21.5q115 0 206 -33.5t153.5 -91t95.5 -135t33 -166.5q0 -68 -17.5 -120t-42 -91.5t-53.5 -67.5t-53 -46q-31 -23 -62.5 -44.5t-60.5 -45.5q-57 -47 -66.5 -93.5t-9.5 -107.5v-35t2 -22h-239q0 113 7 183.5 t22.5 115.5t38 71.5t52.5 51.5q25 20 51.5 36.5t53.5 34.5q10 8 26.5 23.5t32 37t26.5 50.5t11 63q0 39 -16.5 76t-45 63.5t-68.5 43t-89 16.5q-111 0 -171.5 -72.5t-66.5 -195.5zM477 0v281h273v-281h-273z" />
<glyph unicode="@" horiz-adv-x="1835" d="M141 483q0 199 73 376t200 310.5t297 211t366 77.5q158 0 273.5 -49t192.5 -130t114 -187.5t37 -223.5q0 -143 -41 -275t-107.5 -232.5t-153.5 -161t-180 -60.5q-61 0 -99 27t-54 53q-12 23 -16.5 40t-6.5 38q-57 -72 -123.5 -114t-152.5 -42q-51 0 -100.5 18.5 t-88.5 59.5t-63.5 105.5t-24.5 154.5q0 111 34 216.5t93.5 187.5t139 132t172.5 50q57 0 96 -16.5t64.5 -39t41 -48t25.5 -43.5l25 104h161l-67 -315q-8 -37 -17.5 -84.5t-18.5 -95.5t-15.5 -93t-6.5 -76q0 -37 16.5 -54t35.5 -17q39 0 88 46t93 124t74.5 181t30.5 218 q0 133 -44 223t-113.5 144.5t-154.5 77t-167 22.5q-156 0 -298 -66.5t-250.5 -180t-173 -267.5t-64.5 -326q0 -170 60 -284.5t154.5 -185t209 -100.5t221.5 -30q201 0 371.5 84t304.5 215l82 -104q-72 -68 -154 -128.5t-175 -105.5t-199.5 -71.5t-225.5 -26.5 q-82 0 -172 16.5t-178 52t-168 92t-140.5 138.5t-96.5 190.5t-36 247.5zM670 487q0 -51 13 -86.5t34.5 -59.5t48.5 -34t51 -10q51 0 100.5 35t87 92t61.5 133t24 158q2 49 -11.5 86t-36 61.5t-51 35.5t-55.5 11q-61 0 -111.5 -41t-84 -103.5t-52 -137t-18.5 -140.5z" />
<glyph unicode="A" horiz-adv-x="1323" d="M14 0l488 1446h307l494 -1446h-289l-84 283h-543l-84 -283h-289zM459 518h399l-199 666z" />
<glyph unicode="B" horiz-adv-x="1409" d="M166 0v1446h516q72 0 120 -1t83 -4t59.5 -7t50.5 -13q55 -16 101.5 -48t80 -75t53 -95t19.5 -111q0 -47 -15 -101.5t-46 -95.5q-35 -45 -78 -69.5t-102 -34.5q59 -10 115.5 -40t99.5 -78t68.5 -113.5t25.5 -149.5q0 -125 -63.5 -226.5t-194.5 -148.5q-35 -12 -68 -19.5 t-69.5 -10.5t-82.5 -4t-108 -1h-565zM434 233h266q59 0 100.5 1.5t70 5.5t52 14t50.5 29q29 20 47 59t18 92q0 25 -5 52.5t-21 56.5q-25 43 -64 67.5t-82 34.5t-86 12t-78 2l-268 3v-429zM434 864h92h98.5t65.5 2q51 0 99.5 4t84.5 25q43 23 70 61.5t27 87.5q0 41 -21.5 80 t-62.5 64q-23 12 -41.5 19t-48 10.5t-74.5 5.5t-119 2h-170v-361z" />
<glyph unicode="C" horiz-adv-x="1409" d="M76 727q0 184 55 325.5t149.5 236.5t218.5 144.5t263 49.5q113 0 197.5 -25.5t148 -67.5t105.5 -92.5t71 -100.5t44 -93t24 -68l-271 -71q-4 20 -14 61t-39 82q-12 16 -32.5 38.5t-52.5 42t-76 33t-99 13.5q-88 0 -162 -35t-126 -100.5t-81.5 -158.5t-29.5 -210 q0 -123 30.5 -219t85 -160.5t127 -98.5t158.5 -34q102 0 166.5 42t110.5 99q35 47 51 86t24 64l254 -107q-14 -35 -42.5 -93t-82.5 -124q-39 -45 -88 -85t-111.5 -70.5t-137 -49t-162.5 -18.5q-143 0 -267.5 51.5t-214.5 149.5t-142 239.5t-52 323.5z" />
<glyph unicode="D" horiz-adv-x="1449" d="M145 0v1446h519q47 0 98 -3t105.5 -13.5t110.5 -33t114 -63.5q90 -63 145 -146t85 -168t39 -166t9 -142q0 -92 -16.5 -184.5t-52 -174.5t-92 -150.5t-136.5 -113.5q-53 -31 -108.5 -48t-113.5 -26.5t-118.5 -11.5t-124.5 -2h-463zM416 244h114q76 0 130.5 2t92.5 6 t65.5 10t49.5 14q39 14 78 42t70 77t49 125t18 189q0 51 -6 114.5t-28.5 126t-66.5 118.5t-120 93q-29 12 -54.5 20.5t-58 11.5t-77.5 5t-113 2h-143v-956z" />
<glyph unicode="E" horiz-adv-x="1280" d="M160 0v1446h1028v-242h-762v-340h696v-233h-696v-387h813v-244h-1079z" />
<glyph unicode="F" d="M166 0v1446h956v-242h-688v-360h604v-232h-604v-612h-268z" />
<glyph unicode="G" horiz-adv-x="1536" d="M94 709q0 170 53.5 312t146.5 244.5t221 160t278 57.5q113 0 210 -33t174.5 -90t135 -135t90.5 -168l-258 -105q-10 31 -31.5 79t-61.5 94t-102.5 80t-154.5 34q-102 0 -178 -42t-127.5 -112.5t-76 -166t-24.5 -201.5q0 -119 31 -212t86 -156.5t130 -97.5t163 -34 q57 0 116.5 16.5t109.5 55.5t85 103.5t45 160.5h-360v238h608v-791h-232v123q-98 -96 -200.5 -128t-194.5 -32q-168 0 -295 61.5t-213 165t-130 238.5t-44 281z" />
<glyph unicode="H" horiz-adv-x="1492" d="M166 0v1446h270v-547h621v547h272v-1446h-272v657h-621v-657h-270z" />
<glyph unicode="I" horiz-adv-x="598" d="M164 0v1446h266v-1446h-266z" />
<glyph unicode="J" horiz-adv-x="811" d="M53 -12v266q29 -6 65 -13.5t79 -7.5q59 0 101 16.5t64 41.5q39 39 45.5 90t6.5 141v924h268v-1022q0 -86 -9 -157.5t-57 -137.5q-33 -45 -77.5 -75.5t-97 -49t-109 -27t-113.5 -8.5q-63 0 -102 7.5t-64 11.5z" />
<glyph unicode="K" horiz-adv-x="1366" d="M164 0v1446h268v-664l580 664h319l-475 -545l506 -901h-309l-385 680l-236 -270v-410h-268z" />
<glyph unicode="L" horiz-adv-x="1067" d="M168 0v1448h272v-1202h574v-246h-846z" />
<glyph unicode="M" horiz-adv-x="1662" d="M156 0v1446h393l282 -1073l277 1073h393v-1446h-264l25 1188l-312 -1188h-243l-314 1188l27 -1188h-264z" />
<glyph unicode="N" horiz-adv-x="1449" d="M168 0v1446h244l639 -1022l-33 1022h266v-1446h-235l-633 1014l16 -1014h-264z" />
<glyph unicode="O" horiz-adv-x="1579" d="M98 721q0 166 53.5 305t146.5 240.5t220 159t275 57.5q135 0 260 -49.5t221 -145.5t153.5 -238.5t57.5 -326.5q0 -156 -47 -294t-135.5 -241.5t-218.5 -164t-296 -60.5q-137 0 -262 47t-235 174q-109 125 -151 262.5t-42 274.5zM377 733q0 -123 31.5 -219t88 -162.5 t133.5 -102.5t167 -36q68 0 140.5 25.5t134 83t101 148.5t41.5 222v15q0 99 -24 189q-26 98 -78.5 173.5t-133.5 120.5t-187 45q-92 0 -169 -36t-131.5 -102.5t-84 -158.5t-29.5 -205z" />
<glyph unicode="P" horiz-adv-x="1280" d="M168 0v1446h487q59 0 122 -3t126 -20q53 -14 112.5 -47t111 -87t84 -134t32.5 -190q0 -72 -18.5 -144.5t-59.5 -135t-107.5 -110t-162.5 -67.5q-59 -14 -118.5 -16.5t-125.5 -2.5h-211v-489h-272zM440 713h195q43 0 81 1t72 11q63 14 99.5 48t53.5 71t21.5 72.5t4.5 54.5 q0 80 -27 124t-45 60q-51 43 -117.5 51t-132.5 8h-205v-501z" />
<glyph unicode="Q" horiz-adv-x="1579" d="M74 723q0 154 45 291t132 241.5t215 166t294 61.5q174 0 305 -62.5t217 -166t129 -235.5t43 -271q0 -41 -5 -98.5t-17.5 -118t-33 -120t-48.5 -104.5q14 -31 45.5 -52.5t66.5 -34.5t64.5 -18t42.5 -5q8 0 14 1t14 3l-75 -258q-88 20 -165 69t-143 109 q-98 -78 -214.5 -118t-241.5 -40q-160 0 -287 57.5t-215 159t-135 240.5t-47 303zM362 717q0 -111 31 -202t86.5 -156.5t131 -102.5t163.5 -37q106 0 180 48t120 122t67.5 163t21.5 171q0 125 -34.5 219t-93 156.5t-132.5 94.5t-147 32q-92 0 -165 -42t-123 -113t-78 -163 t-28 -190z" />
<glyph unicode="R" horiz-adv-x="1323" d="M166 0v1446h461q72 0 133 -2t115.5 -12.5t103.5 -31t96 -59.5q68 -55 114 -142t46 -214q0 -104 -33 -176t-79 -118t-94 -70.5t-79 -32.5l322 -588h-309l-287 537h-242v-537h-268zM434 760h94q70 0 105 1t74 3q23 0 64.5 6t83.5 27.5t74 65.5t32 124q0 12 -2.5 36 t-13.5 51.5t-33.5 56t-65.5 51.5q-43 20 -105.5 25t-181.5 5h-125v-452z" />
<glyph unicode="S" horiz-adv-x="1366" d="M47 270l227 160q12 -20 41 -57t81.5 -73t132 -62.5t194.5 -26.5q39 0 78 4t78 21q39 16 63.5 36.5t37.5 43t17 45t4 40.5q0 35 -10 58.5t-26.5 41t-36 28t-35.5 16.5q-12 4 -21.5 7t-26 8t-44 11.5t-76.5 18.5l-174 37q-70 16 -109 26.5t-73 24.5q-25 10 -66 32.5 t-81 64.5t-68.5 104.5t-28.5 152.5q0 102 41 186.5t116.5 142.5t181 90t232.5 32q117 0 208 -26.5t162 -67.5t122 -94.5t90 -104.5l-221 -166q-18 27 -47 63.5t-73 70.5t-106.5 57.5t-148.5 23.5q-55 0 -104.5 -12.5t-86 -35t-59 -55t-22.5 -73.5q0 -47 23.5 -76t60 -47 t85 -29.5t97.5 -19.5l149 -33q74 -16 156 -41.5t151.5 -73t115.5 -123t46 -192.5q0 -125 -53 -213t-139 -144.5t-196.5 -82t-225.5 -25.5q-59 0 -126 7t-132 26q-37 10 -84 29.5t-98.5 52.5t-101.5 80t-91 112z" />
<glyph unicode="T" d="M47 1200v246h1061v-246h-399v-1200h-271v1200h-391z" />
<glyph unicode="U" horiz-adv-x="1492" d="M164 584v862h270v-889q0 -47 1 -91t18 -85q20 -53 57 -84t78 -46t83 -20.5t74 -5.5q16 0 43 1t59 8.5t65.5 21.5t64.5 41q59 53 69.5 118.5t10.5 155.5v875h272v-911q0 -61 -3 -118t-17.5 -110t-46 -103t-88.5 -100q-55 -49 -117 -76.5t-120 -42t-110.5 -18.5t-89.5 -4 q-66 0 -130 8.5t-126 30.5q-129 45 -200.5 128t-96.5 165q-6 25 -10 47.5t-6 53t-3 75.5t-1 113z" />
<glyph unicode="V" horiz-adv-x="1236" d="M16 1446h285l324 -1141l313 1141h281l-412 -1446h-365z" />
<glyph unicode="W" horiz-adv-x="1705" d="M25 1446h276l197 -1102l225 1102h252l229 -1102l203 1102h279l-318 -1446h-315l-203 1006l-209 -1006h-315z" />
<glyph unicode="X" horiz-adv-x="1323" d="M18 0l486 784l-416 662h311l263 -414l249 414h316l-408 -662l490 -784h-310l-337 535l-330 -535h-314z" />
<glyph unicode="Y" horiz-adv-x="1280" d="M20 1446h306l313 -600l317 600h301l-487 -875v-571h-266v571z" />
<glyph unicode="Z" horiz-adv-x="1236" d="M49 0v221l791 981h-723v244h1061v-232l-760 -970h760v-244h-1129z" />
<glyph unicode="[" horiz-adv-x="724" d="M123 -119v1673h545v-196h-277v-1278h277v-199h-545z" />
<glyph unicode="\" horiz-adv-x="980" d="M27 1446h243l686 -1446h-241z" />
<glyph unicode="]" horiz-adv-x="724" d="M53 78h277v1276h-277v200h545v-1673h-545v197z" />
<glyph unicode="^" horiz-adv-x="1366" d="M199 664l399 782h186l383 -782h-241l-238 501l-250 -501h-239z" />
<glyph unicode="_" horiz-adv-x="1024" d="M-20 -154h1064v-102h-1064v102z" />
<glyph unicode="`" horiz-adv-x="555" d="M74 1448h301l106 -274h-182z" />
<glyph unicode="a" horiz-adv-x="1110" d="M53 295q0 74 33 139q27 55 69 91t87 57.5t91 33t83 17.5q80 16 126 25.5t77.5 17.5t55 15t58.5 18q0 18 -3 44.5t-20.5 51t-52 42t-98.5 17.5q-78 0 -121 -20.5t-61 -44.5q-20 -25 -22.5 -46.5t-2.5 -43.5l-252 14q4 39 10.5 73.5t30.5 80.5q37 68 96.5 103.5t120 52 t113.5 19.5t78 3q74 0 156.5 -12.5t150.5 -53.5q45 -29 69.5 -60.5t37 -66.5t14.5 -73.5t2 -79.5v-543q0 -29 1 -50.5t5 -39t13.5 -35.5t25.5 -41h-291q-2 18 -4 44t-2 36q-41 -35 -119 -70t-184 -35q-86 0 -155.5 26t-117 69t-73 101t-25.5 124zM313 307q0 -59 46.5 -90 t119.5 -31q94 0 156.5 36t83.5 83q10 23 12 46.5t2 45.5v113q-37 -18 -84 -32.5t-131 -28.5q-33 -4 -68.5 -11.5t-66.5 -23t-50.5 -41t-19.5 -66.5z" />
<glyph unicode="b" horiz-adv-x="1193" d="M131 0v1446h244v-508q127 117 297 117q86 0 167 -38t143 -108.5t100 -170t38 -222.5q0 -125 -38 -226.5t-102.5 -172t-148 -109.5t-176.5 -39q-51 0 -93 12.5t-77.5 33t-62.5 45t-47 46.5v-106h-244zM371 528q0 -47 5 -79.5t11 -51.5q18 -74 54 -112.5t74 -57t68.5 -21.5 t39.5 -3q68 0 113.5 30.5t74.5 77.5t41 102.5t14 106.5v13q0 67 -18 121q-20 58 -56 97.5t-83 59.5t-97 20q-41 0 -84 -16t-77.5 -53t-57 -94.5t-22.5 -139.5z" />
<glyph unicode="c" horiz-adv-x="1024" d="M49 512q0 117 40 217t109.5 172t164 113t202.5 41q96 0 170 -29t128.5 -72t89 -94t55.5 -96l-220 -102q-6 25 -23 55.5t-46 57t-69 44t-93 17.5q-106 0 -180 -82t-74 -236q0 -70 17.5 -128t51.5 -101t81 -66.5t108 -23.5q57 0 99 19.5t71 50t46.5 65.5t29.5 65l211 -110 q-31 -84 -81 -143.5t-112.5 -99.5t-131 -58.5t-136.5 -18.5q-106 0 -199.5 39t-162 110.5t-107.5 172t-39 221.5z" />
<glyph unicode="d" horiz-adv-x="1193" d="M74 489q0 115 31.5 217.5t91 180.5t145.5 123t197 45q76 0 145.5 -24.5t128.5 -90.5v506h244v-1446h-244v98q-57 -70 -131 -99.5t-154 -29.5q-92 0 -174 34t-144.5 99.5t-99 162.5t-36.5 224zM330 516q0 -4 1 -30.5t8 -62.5t21.5 -77t42 -75.5t68.5 -57.5t100 -23 q47 0 91.5 18.5t77 56.5t52 97.5t19.5 143.5q-2 49 -11 112.5t-44 114.5q-29 41 -74 67.5t-107 26.5q-61 0 -107 -25.5t-77 -68.5t-46 -99t-15 -118z" />
<glyph unicode="e" d="M70 516q0 129 38.5 229.5t107.5 169t162 104.5t202 36q100 0 173.5 -25.5t122 -59.5t74 -65t33.5 -43q31 -45 51.5 -98t31.5 -107.5t16 -104.5t5 -89h-757q23 -123 95.5 -188.5t195.5 -65.5q63 0 108 16.5t76 39t50 46t32 39.5l209 -121q-96 -129 -219 -194.5t-281 -65.5 q-100 0 -195.5 33t-169 99.5t-117.5 170t-44 244.5zM338 643h479q-16 119 -81.5 167t-147.5 48q-98 0 -163 -55t-87 -160z" />
<glyph unicode="f" horiz-adv-x="641" d="M8 850v176h154v117q0 55 4 109.5t34.5 97.5t98.5 70.5t193 27.5q37 0 70.5 -2t68.5 -6v-209q-31 6 -78 6q-94 0 -129 -51q-6 -10 -11 -31.5t-5 -44.5v-84h223v-176h-223v-850h-246v850h-154z" />
<glyph unicode="g" horiz-adv-x="1193" d="M70 549q0 143 45 239.5t114.5 156t149.5 85t151 25.5q70 0 120 -16.5t84 -39t55.5 -45t31.5 -36.5v106h244v-840q0 -76 -2 -131t-8 -98t-18.5 -76t-37.5 -65q-43 -57 -144 -106.5t-282 -49.5q-137 0 -223 27.5t-136 71.5t-74.5 102.5t-37.5 120.5h271q6 -23 19.5 -45.5 t37 -41t60 -29.5t92.5 -11q94 0 140 28.5t62 52.5q29 39 33 90.5t4 145.5q-41 -37 -118.5 -74t-188.5 -37q-90 0 -171 31t-141.5 92.5t-96 152.5t-35.5 214zM322 555q0 -135 71.5 -202.5t181.5 -67.5q49 0 94.5 14t80 45t56 80t21.5 121v7q0 120 -63 201q-66 83 -191 83 q-47 0 -92 -16.5t-80.5 -50.5t-57 -87t-21.5 -127z" />
<glyph unicode="h" horiz-adv-x="1193" d="M127 0v1446h246v-526q59 59 139 97t186 38q96 0 168 -32t113 -79q63 -68 74.5 -145.5t11.5 -165.5v-633h-242v563q-2 35 -3 57.5t-2 38t-4 26.5t-7 24q-4 8 -13.5 26.5t-29 38t-52 33.5t-83.5 14q-59 0 -103.5 -20.5t-74 -50t-47 -61.5t-23.5 -54q-4 -12 -5 -23.5t-2 -28 t-1 -43v-69.5v-471h-246z" />
<glyph unicode="i" horiz-adv-x="512" d="M133 0v1024h244v-1024h-244zM133 1184v248h244v-248h-244z" />
<glyph unicode="j" horiz-adv-x="512" d="M2 -104q8 0 23.5 1t32 6t31.5 12t26 19q8 10 13 18.5t7 24t2 42v71.5v936h244v-1034q0 -74 -3 -115t-9 -57q-14 -45 -46 -74t-75 -46t-92.5 -24.5t-98.5 -7.5h-23t-32 2v226zM137 1186v248h242v-248h-242z" />
<glyph unicode="k" horiz-adv-x="1110" d="M131 0v1446h244v-813l399 391h313l-391 -391l430 -633h-299l-309 459l-143 -142v-317h-244z" />
<glyph unicode="l" horiz-adv-x="512" d="M133 0v1446h248v-1446h-248z" />
<glyph unicode="m" horiz-adv-x="1792" d="M131 0v1024h244v-115q31 39 71.5 67t84.5 45t87.5 25.5t79.5 8.5q37 0 76 -7.5t77 -25.5t72.5 -49t59.5 -76q14 20 43 48t69 52.5t94 41t122 16.5q78 0 147.5 -23.5t122.5 -81.5q61 -68 70.5 -146.5t9.5 -158.5v-645h-244v565q0 37 -1 81t-15.5 84t-50 66.5t-105.5 26.5 q-59 0 -104 -27.5t-70 -68.5q-35 -57 -44 -118.5t-9 -127.5v-481h-244v571q0 55 -1 82t-7 49q-14 51 -53 86t-105 35q-55 0 -105 -30.5t-83 -87.5q-33 -59 -39 -130t-6 -147v-428h-244z" />
<glyph unicode="n" d="M129 0v1024h248v-121q10 14 28.5 36t51.5 44q47 35 111.5 53.5t123.5 18.5q88 0 159 -35t110 -88q47 -66 55 -148t8 -182v-602h-244v522q0 57 -1 95t-7 61q-16 68 -62 102.5t-106 34.5q-59 0 -110.5 -31.5t-77.5 -83.5q-29 -57 -34 -127.5t-5 -128.5v-444h-248z" />
<glyph unicode="o" horiz-adv-x="1193" d="M72 516q0 117 39 216t107.5 171t164.5 112t211 40q106 0 202.5 -37t169 -105.5t115.5 -169t43 -227.5q0 -121 -37.5 -221t-106.5 -172t-164 -113t-212 -41q-121 0 -218 41t-168 115t-108.5 174t-37.5 217zM328 522q0 -80 22.5 -140t60.5 -102t88 -63.5t105 -21.5 q68 0 118 26.5t83 71.5t48 105q13 52 13 107v15q-2 63 -20.5 120.5t-53 100.5t-86 68t-114.5 25q-57 0 -105.5 -23t-84 -62.5t-55 -98t-19.5 -128.5z" />
<glyph unicode="p" horiz-adv-x="1193" d="M133 -334v1358h244v-94q14 14 37.5 35.5t57.5 42t80 34t105 13.5q113 0 200 -47t145.5 -124t89 -176.5t30.5 -205.5q0 -115 -33.5 -212t-95 -169t-147.5 -112t-189 -40q-53 0 -96 11.5t-77.5 29t-61.5 37t-45 37.5v-418h-244zM375 518v-15q0 -71 17 -125 q20 -59 54.5 -98.5t80.5 -59t98 -19.5q45 0 89 16t78.5 53t57 97.5t22.5 146.5q0 96 -28.5 155.5t-69.5 93.5t-84 45t-69 11q-43 0 -86 -16.5t-78 -52t-57.5 -93t-24.5 -139.5z" />
<glyph unicode="q" d="M51 502q0 141 42 245.5t108.5 172t149.5 101.5t163 34q86 0 161 -36t122 -104v109h243v-1358h-243v430q-14 -16 -39 -37.5t-59.5 -41t-84 -34t-112.5 -14.5q-106 0 -190.5 41t-141.5 113t-88 169t-31 210zM303 502q0 -66 15.5 -122t46 -97t76.5 -64.5t108 -23.5 q109 0 181 79q69 78 69 228v8q-2 90 -28 149.5t-63.5 94t-80.5 48t-78 13.5q-43 0 -87 -17.5t-80 -55t-57.5 -97t-21.5 -143.5z" />
<glyph unicode="r" horiz-adv-x="724" d="M131 0v1024h238v-145q12 20 32.5 49.5t57.5 56.5t94 45q51 17 126 17h17v-252q-41 -2 -102.5 -10.5t-118.5 -51.5q-39 -31 -60.5 -65.5t-31.5 -77.5t-12 -95.5t-2 -115.5v-379h-238z" />
<glyph unicode="s" horiz-adv-x="1067" d="M45 152l182 151q47 -57 118 -94t177 -37q53 0 91 11.5t62.5 29.5t37 39.5t12.5 40.5q0 25 -12.5 41t-28.5 25.5t-34.5 14.5t-31.5 7q-12 2 -45.5 9t-72.5 14.5t-73 14.5t-48 11q-92 20 -148.5 56t-87 76t-42 82t-11.5 77q0 66 28.5 126t85 106t138.5 74t186 28 q117 0 201 -31t137 -68q39 -25 63.5 -49t41.5 -43l-174 -162q-10 20 -29.5 47t-52.5 51.5t-81 41t-116 16.5q-88 0 -129 -31.5t-41 -72.5q0 -55 54.5 -78t152.5 -39q80 -14 133 -24.5t91 -20.5t63.5 -23.5t50.5 -31.5q47 -37 75.5 -94.5t28.5 -123.5q0 -59 -27.5 -121.5 t-84 -113.5t-143.5 -83t-205 -32q-137 0 -265.5 44t-226.5 139z" />
<glyph unicode="t" horiz-adv-x="641" d="M8 848v176h150v362h245v-362h220v-176h-220v-463q0 -47 2.5 -82t12.5 -57.5t34.5 -32.5t67.5 -10q29 0 52.5 2t50.5 10v-207q-55 -10 -96.5 -13t-82.5 -3q-18 0 -57 2t-80 13t-77.5 37t-55.5 73q-12 31 -14 81t-2 128v522h-150z" />
<glyph unicode="u" horiz-adv-x="1193" d="M127 432v592h248v-588q0 -31 1 -56.5t7 -45.5q20 -68 71.5 -98.5t118.5 -30.5q78 0 126.5 33.5t72.5 74.5q14 25 21.5 51.5t11.5 58.5t6 73t2 94v434h246v-1024h-246v104q-16 -16 -44 -37.5t-67.5 -42t-95 -35t-125.5 -14.5q-63 0 -110 12.5t-81 30t-56.5 38t-36.5 38.5 q-27 33 -41.5 69t-20.5 76t-7 88t-1 105z" />
<glyph unicode="v" horiz-adv-x="980" d="M27 1024h254l213 -705l208 705h256l-335 -1024h-265z" />
<glyph unicode="w" horiz-adv-x="1536" d="M35 1024h256l178 -700l190 700h220l188 -700l182 700h256l-307 -1024h-244l-184 653l-197 -653h-241z" />
<glyph unicode="x" horiz-adv-x="1024" d="M18 0l353 549l-312 475h289l168 -258l164 258h291l-309 -475l350 -549h-283l-213 324l-205 -324h-293z" />
<glyph unicode="y" horiz-adv-x="980" d="M25 1024h264l227 -764l195 764h252l-261 -893l-57 -192q-27 -80 -55.5 -136.5t-67.5 -90.5t-90 -49t-123 -15q-59 0 -92 4t-55 8v215q33 -6 65 -6q14 0 48 3t63 24q23 14 40 40.5t17 43.5z" />
<glyph unicode="z" horiz-adv-x="1024" d="M63 0v188l553 617h-497v219h821v-190l-543 -617h543v-217h-877z" />
<glyph unicode="{" horiz-adv-x="724" d="M84 647v129q37 10 67.5 27.5t57.5 70.5q18 41 22.5 91.5t4.5 140.5v74q0 74 3 126t12 92t24.5 69.5t41.5 56.5q27 27 56.5 43t74 25.5t109 13.5t160.5 4v-131q-43 -10 -92.5 -29.5t-83.5 -75.5q-25 -37 -31 -91t-6 -148l2 -2q0 -14 -1 -58.5t-3 -77.5q-4 -78 -19.5 -128 t-41 -80.5t-59.5 -48t-75 -29.5q45 -16 91 -40t77 -89q20 -45 25.5 -101.5t5.5 -161.5v-32q0 -82 6 -138.5t27.5 -95.5t63.5 -64.5t114 -45.5v-129q-84 2 -145.5 5t-106.5 11t-79 22.5t-60 38.5q-33 29 -50.5 64t-25.5 75t-10 86t-2 99v137v51q-4 70 -18.5 113t-36 68.5 t-48 39t-51.5 23.5z" />
<glyph unicode="|" horiz-adv-x="468" d="M129 -512v2048h211v-2048h-211z" />
<glyph unicode="}" horiz-adv-x="724" d="M8 -55q43 10 92.5 29.5t83.5 74.5q25 37 31 91.5t6 148.5l-2 2q0 14 1 58t3 77q2 78 18.5 128t42 81t59.5 48t75 30q-45 16 -91 39.5t-77 89.5q-20 45 -25.5 101t-5.5 161v33q0 82 -6 138t-27.5 95t-63.5 64.5t-114 46.5v129q84 -2 145.5 -5t106.5 -11.5t78 -23t61 -38.5 q33 -29 50.5 -63.5t25.5 -74.5t10 -86t2 -100v-137v-51q2 -70 17.5 -113t37 -69.5t48 -40t51.5 -21.5v-129q-37 -10 -67.5 -27.5t-57.5 -70.5q-18 -41 -22.5 -91t-4.5 -141v-73q0 -74 -3 -126t-12 -92t-24.5 -70t-41.5 -56q-27 -27 -56.5 -43.5t-74 -25.5t-109 -13 t-160.5 -4v131z" />
<glyph unicode="~" horiz-adv-x="1366" d="M168 604q12 16 34.5 47t59.5 60.5t87 52t116 22.5q57 0 105 -17t114 -48l70 -33q33 -14 71.5 -28.5t77.5 -14.5q63 0 112.5 40t88.5 87l94 -182q-18 -20 -47 -49t-66.5 -54.5t-85 -44t-102.5 -18.5q-53 0 -101 18.5t-110 46.5l-59 29q-43 20 -80 33.5t-78 13.5 q-31 0 -54.5 -7t-45 -23.5t-46 -43t-57.5 -65.5z" />
<glyph unicode="&#xa1;" horiz-adv-x="512" d="M82 0v555l78 532h114l76 -532v-555h-268zM82 1163v283h268v-283h-268z" />
<glyph unicode="&#xa2;" horiz-adv-x="1024" d="M45 524q0 131 39 226.5t101.5 162t140 104.5t153.5 52v203h162v-203q76 -10 132 -35.5t97 -64.5t73 -86t58 -97l-217 -102q-20 51 -41.5 82t-42 48t-37 22.5t-26.5 9.5v-631q12 4 34.5 13.5t46 30t46 55t37.5 92.5l211 -113q-10 -27 -30.5 -69t-57.5 -87 q-53 -66 -127 -105.5t-160 -47.5v-205h-160v203q-29 4 -64.5 12t-76.5 25.5t-84 48t-84 79.5q-53 66 -88 159t-35 218zM297 537q0 -84 17.5 -140.5t44 -92.5t58.5 -54.5t60 -26.5v625q-23 -10 -54.5 -28.5t-60.5 -57.5q-47 -59 -56 -123t-9 -102z" />
<glyph unicode="&#xa3;" horiz-adv-x="1280" d="M100 215q0 57 19.5 100t51.5 71t74 41t85 13q39 0 76.5 -8t74.5 -20q2 8 3 16t1 18q0 18 -9 52t-46 67h-268v217h164q-10 12 -25.5 34t-30 51.5t-23.5 69.5t-9 91q0 117 51 193.5t123.5 122t153.5 62.5t141 17q131 0 226 -48t146 -113q33 -43 50.5 -91.5t24.5 -96.5 t7 -95t-2 -90h-266q8 35 9 55.5t1 32.5q0 55 -19.5 97t-48 68.5t-65.5 40t-70 13.5q-35 0 -69.5 -12.5t-62 -37t-44 -60t-16.5 -80.5q0 -37 10 -71t25.5 -61.5t33 -51t31.5 -40.5h254v-217h-160q6 -39 10.5 -73.5t4.5 -73.5q0 -41 -4 -68.5t-11 -56.5q41 -27 73 -43.5 t69 -16.5q39 0 61.5 23t32.5 53.5t12 63.5t2 55v47h265q2 -57 -5.5 -134t-42.5 -163q-12 -31 -31.5 -65.5t-50 -63.5t-75.5 -47t-109 -18q-41 0 -92 11t-106 38l-95 47q-78 -45 -135 -70.5t-129 -25.5q-115 0 -180.5 66.5t-65.5 164.5zM295 207q0 -14 13.5 -29.5t41.5 -15.5 q29 0 48.5 15t31.5 40q-16 14 -34.5 24.5t-45.5 10.5q-31 0 -43 -16.5t-12 -28.5z" />
<glyph unicode="&#xa4;" horiz-adv-x="1366" d="M49 221l164 160q-20 33 -38.5 64.5t-32 67.5t-20.5 80t-7 103q0 57 7 101.5t20.5 79t30.5 66.5t38 65l-158 157l156 158l160 -158q33 18 64.5 36t68.5 31t82 21.5t104 8.5q55 0 98 -8.5t79 -21.5t67 -30.5t63 -36.5l160 158l160 -158l-162 -157q18 -31 35.5 -63t31 -66.5 t21.5 -78.5t8 -100q0 -66 -9 -114.5t-23.5 -86.5t-32 -67t-33.5 -53l162 -162l-160 -158l-160 162q-31 -18 -62.5 -35.5t-67.5 -30t-79 -20.5t-100 -8q-63 0 -112.5 10t-88.5 24.5t-66.5 32t-47.5 29.5l-162 -160zM324 692q0 -80 29.5 -146.5t78.5 -113.5t113.5 -73.5 t136.5 -26.5q74 0 139.5 26.5t113.5 74.5t76.5 114.5t28.5 146.5q0 84 -29.5 150.5t-80.5 114t-114.5 73t-131.5 25.5q-72 0 -136.5 -24.5t-114.5 -72t-79.5 -115t-29.5 -153.5z" />
<glyph unicode="&#xa5;" horiz-adv-x="1236" d="M6 1405h305l305 -584l314 584h301l-297 -524h172v-203h-291l-70 -125h361v-203h-361v-350h-264v350h-362v203h360l-63 125h-297v203h182z" />
<glyph unicode="&#xa6;" horiz-adv-x="468" d="M129 358h211v-716h-211v716zM129 666v716h211v-716h-211z" />
<glyph unicode="&#xa7;" horiz-adv-x="1323" d="M88 770q0 80 46 157t171 148q-27 27 -53.5 68t-26.5 112q0 70 32 126.5t85 94t126 58t157 20.5q43 0 100 -6t120.5 -22.5t130 -43t130.5 -65.5l-115 -174q-92 41 -174 74t-172 33q-12 0 -36.5 -2t-49 -9.5t-42 -21.5t-17.5 -39q0 -35 34.5 -55.5t88.5 -42.5l188 -82 q80 -37 156.5 -75t136 -86t96.5 -111.5t37 -149.5q0 -10 -4 -48t-24.5 -87t-64.5 -101.5t-126 -91.5q23 -23 53.5 -69t30.5 -119q0 -49 -22.5 -100.5t-72 -94.5t-127 -70.5t-188.5 -27.5q-78 0 -151.5 14.5t-138 37t-120 52t-96.5 58.5l119 168q68 -43 125 -68t105.5 -38 t86 -16t66.5 -3q51 0 79 12t41 27.5t15 29t2 15.5q0 18 -10 32.5t-25.5 25.5t-32 19.5t-30.5 14.5q-35 14 -67.5 28.5t-65.5 30.5l-137 60q-45 20 -108.5 53t-121 82t-98.5 115.5t-41 152.5zM348 807q0 -35 17.5 -62.5t43 -48t56.5 -35t59 -26.5q111 -49 181.5 -83 t107.5 -50l59 -33q10 8 25.5 23.5t30 36t25 46t10.5 56.5q0 43 -18.5 74.5t-59.5 60.5q-25 18 -63 38.5t-74.5 37t-64.5 29t-30 12.5q-6 2 -26.5 9t-42 15t-39 15.5t-21.5 9.5l-53 24q-16 -6 -33.5 -13t-36.5 -23q-23 -20 -38 -51t-15 -62z" />
<glyph unicode="&#xa8;" horiz-adv-x="555" d="M-45 1202v244h231v-244h-231zM367 1202v244h231v-244h-231z" />
<glyph unicode="&#xa9;" horiz-adv-x="1705" d="M125 723q0 154 57.5 287t155.5 231t231 154.5t287 56.5q152 0 285 -55.5t231 -153.5t154.5 -232t56.5 -290q0 -109 -31.5 -212t-85.5 -190q-43 -68 -106.5 -127t-142 -103t-171 -69.5t-194.5 -25.5q-141 0 -272 53t-232.5 149.5t-162 230.5t-60.5 296zM190 721 q0 -135 51.5 -255t140.5 -210t211 -143.5t263 -53.5q131 0 251 48.5t210 136.5t144.5 210t56.5 267q2 135 -47.5 256t-137.5 212t-210 144t-267 53q-139 0 -260 -51t-211 -141t-142.5 -211t-52.5 -262zM373 725q0 104 35.5 195.5t100 159t157 106.5t204.5 39 q82 0 145.5 -18.5t111 -46t80 -58.5t57.5 -55l-146 -142q-16 16 -38.5 38t-52.5 40t-69.5 30.5t-89.5 12.5q-66 0 -119 -22.5t-92 -62.5t-59 -95t-20 -119q0 -72 23.5 -127t63.5 -93t93 -58.5t114 -20.5q51 0 91.5 12.5t69 28.5t50 35.5t35.5 36.5l148 -133 q-20 -23 -53 -52.5t-80.5 -58.5t-112 -48.5t-150.5 -19.5q-117 0 -210 39t-156.5 106.5t-97 158t-33.5 192.5z" />
<glyph unicode="&#xaa;" horiz-adv-x="681" d="M80 1044q0 53 21.5 86t55 52.5t75.5 31t83 19.5q37 8 59.5 12t37 8t23.5 7.5t20 7.5q0 12 -1 26.5t-10.5 27.5t-29 22.5t-56.5 9.5q-41 0 -62.5 -9.5t-31.5 -21.5t-12 -26.5t-2 -26.5l-144 10q2 25 11.5 55.5t36 59t74.5 48t130 19.5q49 0 98.5 -11t82.5 -36 q37 -25 44 -53.5t11 -58.5v-349q2 -29 6 -44t18 -38h-139q-8 16 -10 24.5t-4 21.5q-41 -27 -88 -42.5t-96 -15.5q-84 0 -142.5 49t-58.5 135zM229 1044q0 -27 20.5 -43t61.5 -16q18 0 53 6t60 29q23 16 26 36.5t3 41.5v49q-53 -14 -70.5 -18.5t-40.5 -8.5q-37 -6 -75 -21.5 t-38 -54.5z" />
<glyph unicode="&#xab;" horiz-adv-x="894" d="M121 500v288l291 234v-234l-176 -145l176 -143v-230zM494 500v288l290 234v-234l-176 -145l176 -143v-230z" />
<glyph unicode="&#xac;" horiz-adv-x="1366" d="M0 496v211h1366v-707h-211v496h-1155z" />
<glyph unicode="&#xad;" horiz-adv-x="724" d="M109 528v230h507v-230h-507z" />
<glyph unicode="&#xae;" horiz-adv-x="1705" d="M125 723q0 158 58.5 291t157.5 230t231.5 152.5t279.5 55.5q160 0 294 -58.5t231.5 -158.5t151.5 -233t54 -283q0 -152 -57.5 -284t-155.5 -230.5t-231 -154.5t-287 -56q-141 0 -273.5 53t-232.5 149.5t-160.5 230.5t-60.5 296zM190 723q0 -139 52.5 -261t142.5 -211 t211 -140.5t258 -51.5q141 0 262 51.5t210 141.5t140.5 210t51.5 259q0 135 -49.5 257t-138.5 212t-211 143t-263 53t-262 -52t-211 -142t-141.5 -211t-51.5 -258zM528 264v930h318q72 -2 122 -4t95 -19q86 -29 122 -93t36 -128q0 -61 -22.5 -101t-53.5 -64.5t-59.5 -37 t-41.5 -16.5q20 -10 39 -21.5t33 -31t25.5 -51t19.5 -80.5q14 -86 27.5 -152.5t48.5 -130.5h-223q-23 45 -32 96.5t-17 106.5q-10 63 -18.5 102t-28 60.5t-54.5 29t-94 9.5h-47v-404h-195zM723 823h117q27 0 59.5 1t60 12.5t47 35t19.5 66.5q0 20 -11 49t-46 45 q-12 4 -21.5 7t-26 4t-42 1h-68.5h-88v-221z" />
<glyph unicode="&#xaf;" horiz-adv-x="555" d="M-72 1200v186h699v-186h-699z" />
<glyph unicode="&#xb0;" horiz-adv-x="724" d="M10 1194q0 74 28 137.5t76 111.5t111.5 75.5t136.5 27.5q74 0 137.5 -27.5t111.5 -75.5t76 -111.5t28 -137.5t-28 -137.5t-76 -111.5t-111.5 -75.5t-137.5 -27.5t-137 27.5t-111 75.5t-76 111.5t-28 137.5zM215 1194q0 -61 43 -104t104 -43t104.5 43t43.5 104t-43 104 t-105 43q-61 0 -104 -43t-43 -104z" />
<glyph unicode="&#xb1;" horiz-adv-x="1366" d="M86 0v211h1194v-211h-1194zM86 766v211h494v461h211v-461h489v-211h-489v-463h-211v463h-494z" />
<glyph unicode="&#xb2;" horiz-adv-x="768" d="M72 1040q4 57 10 101.5t22 83.5q27 63 67 98t81 50.5t77 18.5t52 3q76 0 131 -23.5t91 -62.5t53.5 -90.5t17.5 -104.5q0 -74 -24.5 -134t-72 -116.5t-115 -115t-153.5 -127.5h383v-146h-616v135q33 23 111.5 83.5t172.5 162.5q14 14 36 39t41.5 56.5t32.5 70.5t13 84 q0 68 -33.5 97.5t-80.5 29.5q-41 0 -63.5 -16.5t-34 -44t-16.5 -65.5t-7 -81z" />
<glyph unicode="&#xb3;" horiz-adv-x="768" d="M43 778h178q2 -18 6 -47t17.5 -55.5t42 -46t80.5 -19.5q70 0 104.5 43t34.5 101q0 45 -16.5 69.5t-41 37.5t-50 16.5t-44.5 5.5h-57v145h55q12 0 36 2t45.5 11.5t37.5 30t16 56.5q0 33 -11 54.5t-28.5 34t-38 17.5t-38.5 5q-41 0 -64.5 -15.5t-37 -38t-19.5 -49 t-10 -49.5l-174 41q6 31 20 76t51 86q31 37 92.5 71t153.5 34q70 0 123 -21.5t90 -56.5t55.5 -80t18.5 -90q0 -51 -17.5 -85t-40 -54.5t-48 -30.5t-40.5 -16q25 -10 53.5 -22.5t53 -36t41 -59.5t16.5 -93q0 -123 -85 -206t-238 -83q-104 0 -169 34.5t-94 73.5 q-41 53 -49 107.5t-10 101.5z" />
<glyph unicode="&#xb4;" horiz-adv-x="555" d="M74 1174l102 272h303l-221 -272h-184z" />
<glyph unicode="&#xb6;" horiz-adv-x="1366" d="M174 1022q0 113 34 179.5t58 94.5q43 53 92.5 83t98.5 44.5t94 18.5t82 4h491v-135h-71v-1653h-146v1653h-268v-1653h-145v969q-57 14 -116 36.5t-114 88.5q-47 57 -68.5 127.5t-21.5 142.5z" />
<glyph unicode="&#xb7;" horiz-adv-x="425" d="M76 504v280h270v-280h-270z" />
<glyph unicode="&#xb8;" horiz-adv-x="555" d="M70 -188l206 213h93l-93 -119q33 2 70 -4t67.5 -21.5t50 -41t19.5 -62.5q0 -59 -40 -92t-93 -48.5t-105 -17.5t-77 -2q-33 0 -51.5 1t-34.5 3v64q10 -4 16 -4h17q20 0 43.5 2t43 7t32 15t12.5 29q0 35 -40 43t-93 8h-20.5t-22.5 -2v29z" />
<glyph unicode="&#xb9;" horiz-adv-x="768" d="M133 1096v121l43 2q25 0 56.5 4t62.5 21.5t55.5 52t32.5 96.5h143v-916h-172v527v34q0 41 -24.5 47.5t-67.5 8.5z" />
<glyph unicode="&#xba;" horiz-adv-x="681" d="M49 1155q0 63 20.5 119.5t59.5 98.5t93 65.5t120 23.5q63 0 116.5 -21.5t92.5 -62.5t60.5 -98t21.5 -127q-2 -68 -23.5 -123t-60.5 -95t-93.5 -62.5t-117.5 -22.5q-61 0 -113.5 22.5t-91.5 63.5t-61.5 96t-22.5 123zM199 1157q-2 -92 43 -135t98 -43q63 0 105 48t42 134 q0 76 -37.5 125t-103.5 49q-23 0 -47.5 -8t-47 -27.5t-37.5 -54.5t-15 -88z" />
<glyph unicode="&#xbb;" horiz-adv-x="894" d="M109 270v234l176 145l-176 144v229l290 -229v-289zM481 270v234l176 145l-176 144v229l291 -229v-289z" />
<glyph unicode="&#xbc;" horiz-adv-x="1792" d="M133 1096v121l43 2q25 0 56.5 4t62.5 21.5t55.5 52t32.5 96.5h143v-916h-172v561q0 41 -24.5 48.5t-67.5 7.5zM487 -10l646 1399l139 -66l-643 -1399zM1069 207v129l397 567h170v-553h115v-145h-121v-205h-164v207h-397zM1253 352h220l4 346z" />
<glyph unicode="&#xbd;" horiz-adv-x="1792" d="M133 1096v121l43 2q25 0 56.5 4t62.5 21.5t55.5 52t32.5 96.5h143v-918h-172v563q0 41 -24.5 48.5t-67.5 7.5zM471 -10l645 1399l137 -66l-641 -1399zM1096 565q4 57 10 101.5t22 83.5q27 63 67 98t81 50t77 18.5t52 3.5q76 0 131 -24t91 -62.5t53.5 -90t17.5 -104.5 q0 -74 -24.5 -134.5t-72 -116.5t-115 -114.5t-153.5 -128.5h383v-145h-616v135q33 23 111.5 83.5t172.5 162.5q14 14 36 38.5t41.5 56.5t32.5 71t13 84q0 68 -33.5 97.5t-80.5 29.5q-41 0 -63.5 -16.5t-34 -44t-16.5 -65.5t-7 -81z" />
<glyph unicode="&#xbe;" horiz-adv-x="1792" d="M43 778h178q2 -18 6 -47t17.5 -55.5t42 -46t80.5 -19.5q70 0 104.5 43t34.5 101q0 45 -16.5 69.5t-41 37.5t-50 16.5t-44.5 5.5h-57v145h55q12 0 36 2t45.5 11.5t37.5 30t16 56.5q0 33 -11 54.5t-28.5 34t-38 17.5t-38.5 5q-41 0 -64.5 -15.5t-37 -38t-19.5 -49 t-10 -49.5l-174 41q6 31 20 76t51 86q31 37 92.5 71t153.5 34q70 0 123 -21.5t90 -56.5t55.5 -80t18.5 -90q0 -51 -17.5 -85t-40 -54.5t-48 -30.5t-40.5 -16q25 -10 53.5 -22.5t53 -36t41 -59.5t16.5 -93q0 -123 -85 -206t-238 -83q-104 0 -169 34.5t-94 73.5 q-41 53 -49 107.5t-10 101.5zM537 -10l643 1396l139 -63l-641 -1399zM1069 207v129l395 569h170v-555h115v-145h-119v-205h-164v207h-397zM1251 352h219l5 346z" />
<glyph unicode="&#xbf;" d="M55 401q0 66 16.5 118t41 91t53.5 68t55 49q29 25 61.5 45.5t61.5 44.5q12 10 26.5 24.5t26 37t18.5 55.5t7 82q0 23 -1 35t-3 24h239q0 -104 -5 -171.5t-18 -114t-38 -77t-61 -61.5q-25 -20 -50.5 -35.5t-52.5 -33.5q-35 -27 -53.5 -54.5t-28.5 -51t-12 -42t-2 -28.5 q0 -82 63.5 -139.5t157.5 -57.5q61 0 105.5 23.5t73 62.5t42 87t15.5 97l247 -30q-10 -141 -59 -232.5t-121 -145t-155.5 -75t-161.5 -21.5q-117 0 -207 34t-152.5 92.5t-95.5 135t-33 164.5zM399 1165v281h273v-281h-273z" />
<glyph unicode="&#xc0;" horiz-adv-x="1323" d="M14 0l488 1446h307l494 -1446h-289l-84 283h-543l-84 -283h-289zM379 1833h291l110 -248h-182zM459 518h399l-199 666z" />
<glyph unicode="&#xc1;" horiz-adv-x="1323" d="M14 0l488 1446h307l494 -1446h-289l-84 283h-543l-84 -283h-289zM459 518h399l-199 666zM549 1587l108 246h293l-219 -246h-182z" />
<glyph unicode="&#xc2;" horiz-adv-x="1323" d="M14 0l488 1446h307l494 -1446h-289l-84 283h-543l-84 -283h-289zM338 1583l205 250h241l213 -250h-247l-86 115l-86 -115h-240zM459 518h399l-199 666z" />
<glyph unicode="&#xc3;" horiz-adv-x="1323" d="M14 0l488 1446h307l494 -1446h-289l-84 283h-543l-84 -283h-289zM303 1575q4 45 13.5 82t35.5 78q6 8 17.5 24.5t32 32.5t49 28.5t65.5 12.5q39 0 79 -11.5t69 -23.5q35 -14 76.5 -28.5t64.5 -14.5q18 0 39 12q18 10 23 22.5t14 43.5h159q-4 -31 -13 -80t-42 -96 q-31 -47 -72 -65.5t-79 -18.5q-45 0 -91.5 15.5t-85.5 31.5q-31 10 -62.5 21.5t-57.5 11.5q-33 0 -49.5 -20.5t-24.5 -57.5h-160zM459 518h399l-199 666z" />
<glyph unicode="&#xc4;" horiz-adv-x="1323" d="M14 0l488 1446h307l494 -1446h-289l-84 283h-543l-84 -283h-289zM350 1581v252h230v-252h-230zM459 518h399l-199 666zM760 1581v252h233v-252h-233z" />
<glyph unicode="&#xc5;" horiz-adv-x="1323" d="M14 0l488 1446h307l494 -1446h-289l-84 283h-543l-84 -283h-289zM459 518h399l-199 666zM461 1765q0 43 16.5 80t44 65.5t65.5 45t81 16.5t81.5 -16.5t66.5 -45t44.5 -65.5t16.5 -80t-16.5 -80.5t-44.5 -66.5t-66.5 -45.5t-81.5 -16.5t-81 16.5t-65.5 45.5t-44 66.5 t-16.5 80.5zM582 1765q0 -37 25.5 -61.5t60.5 -24.5q37 0 61.5 26t24.5 60q0 35 -24.5 59.5t-61.5 24.5q-35 0 -60.5 -24.5t-25.5 -59.5z" />
<glyph unicode="&#xc6;" horiz-adv-x="2134" d="M12 0l856 1446h1186v-244h-754v-342h656v-237h-656v-377h785v-246h-1057v338h-508l-192 -338h-316zM659 582h369v659z" />
<glyph unicode="&#xc7;" horiz-adv-x="1409" d="M76 727q0 184 55 325.5t149.5 236.5t218.5 144.5t263 49.5q113 0 197.5 -25.5t147 -67.5t105.5 -92.5t71 -100.5t43 -93t24 -68l-269 -71q-4 23 -14 62.5t-39 80.5q-12 16 -32.5 38.5t-52.5 42t-76 33t-99 13.5q-88 0 -162 -35t-126 -100.5t-81.5 -158.5t-29.5 -210 q0 -123 30.5 -218t85 -160.5t127 -99.5t158.5 -34q102 0 166.5 42t110.5 101q35 47 50 85t25 63l254 -107q-14 -35 -42.5 -92t-82.5 -123q-55 -68 -112.5 -107.5t-114.5 -62t-117.5 -32t-122.5 -17.5l-47 -63q33 2 70 -4t67.5 -21.5t50 -41t19.5 -62.5q0 -59 -40 -91 t-93 -47.5t-105.5 -17.5t-76.5 -2q-33 0 -51.5 1t-34.5 3v64q10 -4 16 -4h16q20 0 44 2t43.5 7t32 15t12.5 29q0 35 -40 42t-94 7h-20t-23 -2v29l154 157q-59 10 -116.5 22.5t-115 38t-113.5 68.5t-110 115q-84 111 -118.5 243t-34.5 271z" />
<glyph unicode="&#xc8;" horiz-adv-x="1280" d="M160 0v1446h1028v-242h-762v-340h696v-233h-696v-387h813v-244h-1079zM356 1833h291l111 -248h-183z" />
<glyph unicode="&#xc9;" horiz-adv-x="1280" d="M160 0v1446h1028v-242h-762v-340h696v-233h-696v-387h813v-244h-1079zM526 1587l109 246h293l-219 -246h-183z" />
<glyph unicode="&#xca;" horiz-adv-x="1280" d="M160 0v1446h1028v-242h-762v-340h696v-233h-696v-387h813v-244h-1079zM315 1583l205 250h242l213 -250h-248l-86 115l-86 -115h-240z" />
<glyph unicode="&#xcb;" horiz-adv-x="1280" d="M160 0v1446h1028v-242h-762v-340h696v-233h-696v-387h813v-244h-1079zM319 1581v252h230v-252h-230zM729 1581v252h234v-252h-234z" />
<glyph unicode="&#xcc;" horiz-adv-x="598" d="M16 1833h291l111 -248h-182zM164 0v1446h266v-1446h-266z" />
<glyph unicode="&#xcd;" horiz-adv-x="598" d="M164 0v1446h266v-1446h-266zM186 1587l109 246h293l-219 -246h-183z" />
<glyph unicode="&#xce;" horiz-adv-x="598" d="M-25 1583l205 250h242l213 -250h-248l-86 115l-86 -115h-240zM164 0v1446h266v-1446h-266z" />
<glyph unicode="&#xcf;" horiz-adv-x="598" d="M-20 1581v252h229v-252h-229zM164 0v1446h266v-1446h-266zM389 1581v252h234v-252h-234z" />
<glyph unicode="&#xd0;" horiz-adv-x="1449" d="M6 668v184h139v594h476q72 0 137 -2t131 -19q98 -23 186 -80t153.5 -146t103.5 -212t38 -276q0 -139 -33.5 -259t-95.5 -208q-66 -92 -143.5 -141.5t-164.5 -72t-180.5 -26.5t-185.5 -4h-422v668h-139zM416 244h114q76 0 130.5 2t92.5 6t65.5 10t49.5 14q39 14 78 42 t70 77t49 125t18 189q0 27 -2 67.5t-11 88.5t-28.5 98.5t-52.5 93.5q-43 55 -116.5 97t-184.5 44l-272 2v-350h315v-184h-315v-422z" />
<glyph unicode="&#xd1;" horiz-adv-x="1449" d="M168 0v1446h244l639 -1022l-33 1022h266v-1446h-235l-633 1014l16 -1014h-264zM367 1575q4 45 13 82t36 78q6 8 17 24.5t31.5 32.5t49.5 28.5t66 12.5q39 0 78.5 -11.5t68.5 -23.5q35 -14 77 -28.5t64 -14.5q18 0 39 12q18 10 23.5 22.5t13.5 43.5h160q-4 -31 -13.5 -80 t-41.5 -96q-31 -47 -72 -65.5t-80 -18.5q-45 0 -91 15.5t-85 31.5q-31 10 -62.5 21.5t-58.5 11.5q-33 0 -49 -20.5t-25 -57.5h-159z" />
<glyph unicode="&#xd2;" horiz-adv-x="1579" d="M98 721q0 166 53.5 305t146.5 240.5t220 159t275 57.5q135 0 260 -49.5t221 -145.5t153.5 -238.5t57.5 -326.5q0 -156 -47 -294t-135.5 -241.5t-218.5 -164t-296 -60.5q-137 0 -262 47t-235 174q-109 125 -151 262.5t-42 274.5zM377 733q0 -123 31.5 -219t88 -162.5 t133.5 -102.5t167 -36q68 0 140.5 25.5t134 83t101 148.5t41.5 222q2 106 -23.5 203.5t-78.5 173.5t-134 121t-187 45q-92 0 -169 -36t-131.5 -102.5t-84 -158.5t-29.5 -205zM506 1833h291l110 -248h-182z" />
<glyph unicode="&#xd3;" horiz-adv-x="1579" d="M98 721q0 166 53.5 305t146.5 240.5t220 159t275 57.5q135 0 260 -49.5t221 -145.5t153.5 -238.5t57.5 -326.5q0 -156 -47 -294t-135.5 -241.5t-218.5 -164t-296 -60.5q-137 0 -262 47t-235 174q-109 125 -151 262.5t-42 274.5zM377 733q0 -123 31.5 -219t88 -162.5 t133.5 -102.5t167 -36q68 0 140.5 25.5t134 83t101 148.5t41.5 222q2 106 -23.5 203.5t-78.5 173.5t-134 121t-187 45q-92 0 -169 -36t-131.5 -102.5t-84 -158.5t-29.5 -205zM676 1587l108 246h293l-219 -246h-182z" />
<glyph unicode="&#xd4;" horiz-adv-x="1579" d="M98 721q0 166 53.5 305t146.5 240.5t220 159t275 57.5q135 0 260 -49.5t221 -145.5t153.5 -238.5t57.5 -326.5q0 -156 -47 -294t-135.5 -241.5t-218.5 -164t-296 -60.5q-137 0 -262 47t-235 174q-109 125 -151 262.5t-42 274.5zM377 733q0 -123 31.5 -219t88 -162.5 t133.5 -102.5t167 -36q68 0 140.5 25.5t134 83t101 148.5t41.5 222q2 106 -23.5 203.5t-78.5 173.5t-134 121t-187 45q-92 0 -169 -36t-131.5 -102.5t-84 -158.5t-29.5 -205zM465 1583l205 250h241l213 -250h-247l-86 115l-86 -115h-240z" />
<glyph unicode="&#xd5;" horiz-adv-x="1579" d="M98 721q0 166 53.5 305t146.5 240.5t220 159t275 57.5q135 0 260 -49.5t221 -145.5t153.5 -238.5t57.5 -326.5q0 -156 -47 -294t-135.5 -241.5t-218.5 -164t-296 -60.5q-137 0 -262 47t-235 174q-109 125 -151 262.5t-42 274.5zM377 733q0 -123 31.5 -219t88 -162.5 t133.5 -102.5t167 -36q68 0 140.5 25.5t134 83t101 148.5t41.5 222q2 106 -23.5 203.5t-78.5 173.5t-134 121t-187 45q-92 0 -169 -36t-131.5 -102.5t-84 -158.5t-29.5 -205zM430 1575q4 45 13.5 82t35.5 78q6 8 17.5 24.5t32 32.5t49 28.5t65.5 12.5q39 0 79 -11.5 t69 -23.5q35 -14 76.5 -28.5t64.5 -14.5q18 0 39 12q18 10 23 22.5t14 43.5h159q-4 -31 -13 -80t-42 -96q-31 -47 -72 -65.5t-79 -18.5q-45 0 -91.5 15.5t-85.5 31.5q-31 10 -62.5 21.5t-57.5 11.5q-33 0 -49.5 -20.5t-24.5 -57.5h-160z" />
<glyph unicode="&#xd6;" horiz-adv-x="1579" d="M98 721q0 166 53.5 305t146.5 240.5t220 159t275 57.5q135 0 260 -49.5t221 -145.5t153.5 -238.5t57.5 -326.5q0 -156 -47 -294t-135.5 -241.5t-218.5 -164t-296 -60.5q-137 0 -262 47t-235 174q-109 125 -151 262.5t-42 274.5zM377 733q0 -123 31.5 -219t88 -162.5 t133.5 -102.5t167 -36q68 0 140.5 25.5t134 83t101 148.5t41.5 222q2 106 -23.5 203.5t-78.5 173.5t-134 121t-187 45q-92 0 -169 -36t-131.5 -102.5t-84 -158.5t-29.5 -205zM471 1581v252h229v-252h-229zM881 1581v252h233v-252h-233z" />
<glyph unicode="&#xd7;" horiz-adv-x="1366" d="M139 205l391 393l-391 393l152 152l391 -393l391 393l154 -152l-393 -393l393 -393l-154 -152l-391 393l-391 -393z" />
<glyph unicode="&#xd8;" horiz-adv-x="1579" d="M49 201l144 127q-41 68 -70 159t-29 228q0 176 54.5 318.5t148.5 241.5t223 153.5t279 54.5q90 0 162.5 -18.5t130 -47t100.5 -63.5t78 -68l127 113l121 -137l-138 -121q55 -98 82 -205t27 -217q0 -135 -42 -269.5t-128 -243t-218 -176t-313 -67.5q-102 0 -179 20.5 t-135 52.5t-101 70.5t-78 75.5l-129 -116zM367 745q0 -12 1 -35.5t5 -54t12 -65.5t25 -68l665 594q-16 14 -38.5 36t-56.5 41t-79 32.5t-102 13.5q-96 0 -175 -40t-136.5 -108.5t-89 -157.5t-31.5 -188zM500 362q8 -12 27.5 -37.5t53 -51t85 -44t122.5 -18.5q88 0 167 36 t136.5 101.5t91.5 156.5t34 202q0 66 -10.5 127t-37.5 120z" />
<glyph unicode="&#xd9;" horiz-adv-x="1492" d="M164 584v862h270v-889q0 -47 1 -91t18 -85q20 -53 57 -84t78 -46t83 -20.5t74 -5.5q16 0 43 1t59 8.5t65.5 21.5t64.5 41q59 53 69.5 118.5t10.5 155.5v875h272v-911q0 -61 -3 -118t-17.5 -110t-46 -103t-88.5 -100q-55 -49 -117 -76.5t-120 -42t-110.5 -18.5t-89.5 -4 q-66 0 -130 8.5t-126 30.5q-129 45 -200.5 128t-96.5 165q-6 25 -10 47.5t-6 53t-3 75.5t-1 113zM465 1833h291l110 -248h-182z" />
<glyph unicode="&#xda;" horiz-adv-x="1492" d="M164 584v862h270v-889q0 -47 1 -91t18 -85q20 -53 57 -84t78 -46t83 -20.5t74 -5.5q16 0 43 1t59 8.5t65.5 21.5t64.5 41q59 53 69.5 118.5t10.5 155.5v875h272v-911q0 -61 -3 -118t-17.5 -110t-46 -103t-88.5 -100q-55 -49 -117 -76.5t-120 -42t-110.5 -18.5t-89.5 -4 q-66 0 -130 8.5t-126 30.5q-129 45 -200.5 128t-96.5 165q-6 25 -10 47.5t-6 53t-3 75.5t-1 113zM635 1587l108 246h293l-219 -246h-182z" />
<glyph unicode="&#xdb;" horiz-adv-x="1492" d="M164 584v862h270v-889q0 -47 1 -91t18 -85q20 -53 57 -84t78 -46t83 -20.5t74 -5.5q16 0 43 1t59 8.5t65.5 21.5t64.5 41q59 53 69.5 118.5t10.5 155.5v875h272v-911q0 -61 -3 -118t-17.5 -110t-46 -103t-88.5 -100q-55 -49 -117 -76.5t-120 -42t-110.5 -18.5t-89.5 -4 q-66 0 -130 8.5t-126 30.5q-129 45 -200.5 128t-96.5 165q-6 25 -10 47.5t-6 53t-3 75.5t-1 113zM424 1583l205 250h241l213 -250h-247l-86 115l-86 -115h-240z" />
<glyph unicode="&#xdc;" horiz-adv-x="1492" d="M164 584v862h270v-889q0 -47 1 -91t18 -85q20 -53 57 -84t78 -46t83 -20.5t74 -5.5q16 0 43 1t59 8.5t65.5 21.5t64.5 41q59 53 69.5 118.5t10.5 155.5v875h272v-911q0 -61 -3 -118t-17.5 -110t-46 -103t-88.5 -100q-55 -49 -117 -76.5t-120 -42t-110.5 -18.5t-89.5 -4 q-66 0 -130 8.5t-126 30.5q-129 45 -200.5 128t-96.5 165q-6 25 -10 47.5t-6 53t-3 75.5t-1 113zM426 1581v252h229v-252h-229zM836 1581v252h233v-252h-233z" />
<glyph unicode="&#xdd;" horiz-adv-x="1280" d="M20 1446h306l313 -600l317 600h301l-487 -875v-571h-266v571zM526 1587l109 246h293l-219 -246h-183z" />
<glyph unicode="&#xde;" horiz-adv-x="1280" d="M168 0v1446h272v-205h215q59 0 122 -3t126 -19q53 -14 112.5 -47t111 -87.5t84 -134.5t32.5 -190q0 -72 -18.5 -144.5t-59.5 -135t-107.5 -109.5t-162.5 -68q-59 -14 -118.5 -16t-125.5 -2h-211v-285h-272zM440 508h195q43 0 81 1t72 11q63 14 99.5 48t53.5 71t21.5 73 t4.5 54q0 80 -27 124t-45 60q-51 43 -117.5 51.5t-132.5 8.5h-205v-502z" />
<glyph unicode="&#xdf;" d="M133 0v1010q0 45 1 71.5t1 42t1 23.5t3 18q10 72 49 129.5t96.5 96.5t130 59t152.5 20q90 0 173 -25.5t146.5 -72.5t101.5 -114.5t38 -151.5q0 -59 -17.5 -103.5t-45 -76t-59.5 -52t-62 -30.5q33 -16 56.5 -27.5t45.5 -30.5q20 -16 45 -44.5t44.5 -69.5t32.5 -97.5 t13 -128.5q0 -100 -26.5 -185t-78.5 -146.5t-129 -96t-179 -34.5q-6 0 -27 1t-48.5 4t-60 9t-61.5 16v238q16 -10 53 -27.5t86 -17.5q29 0 66 11t68.5 41t54 79t22.5 127q0 74 -20.5 124t-53 80.5t-72.5 47t-79 24t-73 6t-52 -1.5v185q18 -2 32.5 -3t33.5 -1q55 0 95 14 t66.5 39t39 55.5t12.5 63.5q0 61 -44.5 106t-130.5 45q-47 0 -81.5 -13t-57.5 -34q-39 -37 -45 -89t-8 -142v-971h-248z" />
<glyph unicode="&#xe0;" horiz-adv-x="1110" d="M53 295q0 74 33 139q27 55 69 91t87 57.5t91 33t83 17.5q80 16 126 25.5t77.5 17.5t55 15t58.5 18q0 18 -3 44.5t-20.5 51t-52 42t-98.5 17.5q-78 0 -121 -20.5t-61 -44.5q-20 -25 -22.5 -46.5t-2.5 -43.5l-252 14q4 39 10.5 73.5t30.5 80.5q37 68 96.5 103.5t120 52 t113.5 19.5t78 3q74 0 156.5 -12.5t150.5 -53.5q45 -29 69.5 -60.5t37 -66.5t14.5 -73.5t2 -79.5v-543q0 -29 1 -50.5t5 -39t13.5 -35.5t25.5 -41h-291q-2 18 -4 44t-2 36q-41 -35 -119 -70t-184 -35q-86 0 -155.5 26t-117 69t-73 101t-25.5 124zM313 307q0 -59 46.5 -90 t119.5 -31q94 0 156.5 36t83.5 83q10 23 12 46.5t2 45.5v113q-37 -18 -84 -32.5t-131 -28.5q-33 -4 -68.5 -11.5t-66.5 -23t-50.5 -41t-19.5 -66.5zM338 1448h301l106 -274h-182z" />
<glyph unicode="&#xe1;" horiz-adv-x="1110" d="M53 295q0 74 33 139q27 55 69 91t87 57.5t91 33t83 17.5q80 16 126 25.5t77.5 17.5t55 15t58.5 18q0 18 -3 44.5t-20.5 51t-52 42t-98.5 17.5q-78 0 -121 -20.5t-61 -44.5q-20 -25 -22.5 -46.5t-2.5 -43.5l-252 14q4 39 10.5 73.5t30.5 80.5q37 68 96.5 103.5t120 52 t113.5 19.5t78 3q74 0 156.5 -12.5t150.5 -53.5q45 -29 69.5 -60.5t37 -66.5t14.5 -73.5t2 -79.5v-543q0 -29 1 -50.5t5 -39t13.5 -35.5t25.5 -41h-291q-2 18 -4 44t-2 36q-41 -35 -119 -70t-184 -35q-86 0 -155.5 26t-117 69t-73 101t-25.5 124zM313 307q0 -59 46.5 -90 t119.5 -31q94 0 156.5 36t83.5 83q10 23 12 46.5t2 45.5v113q-37 -18 -84 -32.5t-131 -28.5q-33 -4 -68.5 -11.5t-66.5 -23t-50.5 -41t-19.5 -66.5zM451 1174l102 272h303l-221 -272h-184z" />
<glyph unicode="&#xe2;" horiz-adv-x="1110" d="M53 295q0 74 33 139q27 55 69 91t87 57.5t91 33t83 17.5q80 16 126 25.5t77.5 17.5t55 15t58.5 18q0 18 -3 44.5t-20.5 51t-52 42t-98.5 17.5q-78 0 -121 -20.5t-61 -44.5q-20 -25 -22.5 -46.5t-2.5 -43.5l-252 14q4 39 10.5 73.5t30.5 80.5q37 68 96.5 103.5t120 52 t113.5 19.5t78 3q74 0 156.5 -12.5t150.5 -53.5q45 -29 69.5 -60.5t37 -66.5t14.5 -73.5t2 -79.5v-543q0 -29 1 -50.5t5 -39t13.5 -35.5t25.5 -41h-291q-2 18 -4 44t-2 36q-41 -35 -119 -70t-184 -35q-86 0 -155.5 26t-117 69t-73 101t-25.5 124zM209 1171l228 275h241 l228 -275h-250l-96 138l-103 -138h-248zM313 307q0 -59 46.5 -90t119.5 -31q94 0 156.5 36t83.5 83q10 23 12 46.5t2 45.5v113q-37 -18 -84 -32.5t-131 -28.5q-33 -4 -68.5 -11.5t-66.5 -23t-50.5 -41t-19.5 -66.5z" />
<glyph unicode="&#xe3;" horiz-adv-x="1110" d="M53 295q0 74 33 139q27 55 69 91t87 57.5t91 33t83 17.5q80 16 126 25.5t77.5 17.5t55 15t58.5 18q0 18 -3 44.5t-20.5 51t-52 42t-98.5 17.5q-78 0 -121 -20.5t-61 -44.5q-20 -25 -22.5 -46.5t-2.5 -43.5l-252 14q4 39 10.5 73.5t30.5 80.5q37 68 96.5 103.5t120 52 t113.5 19.5t78 3q74 0 156.5 -12.5t150.5 -53.5q45 -29 69.5 -60.5t37 -66.5t14.5 -73.5t2 -79.5v-543q0 -29 1 -50.5t5 -39t13.5 -35.5t25.5 -41h-291q-2 18 -4 44t-2 36q-41 -35 -119 -70t-184 -35q-86 0 -155.5 26t-117 69t-73 101t-25.5 124zM199 1196q4 45 13 82t36 78 q6 8 17.5 24.5t32 33t49 28.5t65.5 12q39 0 78 -11t67 -22q35 -14 78 -28.5t66 -14.5q4 0 14 1t25 10q16 10 21 19t15 38h158q0 -4 -2 -17.5t-5 -28t-5 -26.5t-4 -18q-8 -27 -22.5 -55.5t-38 -52t-55.5 -39t-73 -15.5q-47 0 -92 15.5t-86 31.5q-29 10 -60.5 21.5t-58.5 11.5 q-33 0 -49 -20.5t-24 -57.5h-160zM313 307q0 -59 46.5 -90t119.5 -31q94 0 156.5 36t83.5 83q10 23 12 46.5t2 45.5v113q-37 -18 -84 -32.5t-131 -28.5q-33 -4 -68.5 -11.5t-66.5 -23t-50.5 -41t-19.5 -66.5z" />
<glyph unicode="&#xe4;" horiz-adv-x="1110" d="M53 295q0 74 33 139q27 55 69 91t87 57.5t91 33t83 17.5q80 16 126 25.5t77.5 17.5t55 15t58.5 18q0 18 -3 44.5t-20.5 51t-52 42t-98.5 17.5q-78 0 -121 -20.5t-61 -44.5q-20 -25 -22.5 -46.5t-2.5 -43.5l-252 14q4 39 10.5 73.5t30.5 80.5q37 68 96.5 103.5t120 52 t113.5 19.5t78 3q74 0 156.5 -12.5t150.5 -53.5q45 -29 69.5 -60.5t37 -66.5t14.5 -73.5t2 -79.5v-543q0 -29 1 -50.5t5 -39t13.5 -35.5t25.5 -41h-291q-2 18 -4 44t-2 36q-41 -35 -119 -70t-184 -35q-86 0 -155.5 26t-117 69t-73 101t-25.5 124zM219 1202v244h231v-244 h-231zM313 307q0 -59 46.5 -90t119.5 -31q94 0 156.5 36t83.5 83q10 23 12 46.5t2 45.5v113q-37 -18 -84 -32.5t-131 -28.5q-33 -4 -68.5 -11.5t-66.5 -23t-50.5 -41t-19.5 -66.5zM631 1202v244h231v-244h-231z" />
<glyph unicode="&#xe5;" horiz-adv-x="1110" d="M53 295q0 74 33 139q27 55 69 91t87 57.5t91 33t83 17.5q80 16 126 25.5t77.5 17.5t55 15t58.5 18q0 18 -3 44.5t-20.5 51t-52 42t-98.5 17.5q-78 0 -121 -20.5t-61 -44.5q-20 -25 -22.5 -46.5t-2.5 -43.5l-252 14q4 39 10.5 73.5t30.5 80.5q37 68 96.5 103.5t120 52 t113.5 19.5t78 3q74 0 156.5 -12.5t150.5 -53.5q45 -29 69.5 -60.5t37 -66.5t14.5 -73.5t2 -79.5v-543q0 -29 1 -50.5t5 -39t13.5 -35.5t25.5 -41h-291q-2 18 -4 44t-2 36q-41 -35 -119 -70t-184 -35q-86 0 -155.5 26t-117 69t-73 101t-25.5 124zM313 307q0 -59 46.5 -90 t119.5 -31q94 0 156.5 36t83.5 83q10 23 12 46.5t2 45.5v113q-37 -18 -84 -32.5t-131 -28.5q-33 -4 -68.5 -11.5t-66.5 -23t-50.5 -41t-19.5 -66.5zM336 1356q0 43 16 81t45 66.5t67 45t81 16.5t80.5 -16.5t66.5 -45t45 -66.5t16 -81t-16 -81t-45 -66.5t-66.5 -45 t-80.5 -16.5t-81 16.5t-67 45t-45 66.5t-16 81zM459 1356q0 -35 25.5 -60.5t60.5 -25.5t60.5 25.5t25.5 60.5t-26 60.5t-60 25.5q-35 0 -60.5 -25.5t-25.5 -60.5z" />
<glyph unicode="&#xe6;" horiz-adv-x="1792" d="M59 279q0 96 44 158.5t111 100t142.5 58t139.5 35.5q68 14 105.5 23.5t62 15.5t42 11t39.5 15q0 20 -5 51t-23.5 60t-56 49.5t-107.5 20.5q-74 0 -115 -20.5t-61.5 -48.5t-25.5 -55.5t-5 -41.5h-237q10 94 45.5 159.5t92 106.5t128 59.5t155.5 18.5q86 0 144.5 -12.5 t99.5 -33t67.5 -44t47.5 -45.5q25 23 54.5 47t68.5 43.5t90 32t119 12.5q25 0 70.5 -4t102 -21.5t116 -54.5t108.5 -105q14 -23 33.5 -56.5t37 -82.5t30 -114.5t14.5 -151.5h-748q4 -55 21.5 -105.5t51.5 -88.5t84 -60.5t118 -22.5q51 0 88.5 13.5t67.5 34t51.5 45 t39.5 47.5l197 -121q-31 -37 -72 -79t-99 -78t-135 -58.5t-175 -22.5q-23 0 -61 2t-88 16.5t-108.5 45t-121.5 88.5q-35 -29 -74 -56.5t-86 -49t-106.5 -34t-135.5 -12.5q-25 0 -56.5 2t-67 9.5t-72.5 21.5t-70 39q-49 37 -83 98.5t-34 139.5zM319 285q0 -55 43.5 -95 t131.5 -40q53 0 92 15t65.5 36.5t43 46t24.5 43.5q6 14 10 27.5t6 33t4 52.5t6 88q-25 -10 -44 -17.5t-43.5 -13.5t-62.5 -14.5t-101 -20.5q-25 -4 -55.5 -12t-56.5 -23.5t-44.5 -41t-18.5 -64.5zM987 641h455q-23 113 -86.5 164t-143.5 51q-98 0 -157.5 -61.5t-67.5 -153.5 z" />
<glyph unicode="&#xe7;" horiz-adv-x="1024" d="M49 512q0 117 40 217t109.5 172t164 113t204.5 41q96 0 170 -29t127.5 -72t89 -94t54.5 -96l-220 -102q-6 25 -23 55.5t-45 57t-69 44t-94 17.5q-106 0 -180 -82t-74 -236q0 -70 17.5 -128t51.5 -101t82 -66.5t107 -23.5q57 0 99 19.5t71 50t47.5 65.5t30.5 65l209 -110 q-8 -23 -28.5 -68t-71.5 -98q-39 -43 -78 -68.5t-77 -41t-78 -23.5t-79 -15l-53 -69q33 2 69.5 -4t67.5 -21.5t50.5 -41t19.5 -62.5q0 -59 -40 -91t-93.5 -47.5t-105.5 -17.5t-77 -2q-33 0 -51 1t-35 3v64q10 -4 16.5 -4h16.5q20 0 44 2t43.5 7t31.5 15t12 29q0 35 -41 42 t-94 7h-20.5t-20.5 -2v29l158 163q-39 6 -79 15.5t-79 25t-78 41t-78 68.5q-66 72 -103.5 172t-37.5 215z" />
<glyph unicode="&#xe8;" d="M70 516q0 129 38.5 229.5t107.5 169t162 104.5t202 36q100 0 173.5 -25.5t122 -59.5t74 -65t33.5 -43q31 -45 51.5 -98t31.5 -107.5t16 -104.5t5 -89h-757q23 -123 95.5 -188.5t195.5 -65.5q63 0 108 16.5t76 39t50 46t32 39.5l209 -121q-96 -129 -219 -194.5t-281 -65.5 q-100 0 -195.5 33t-169 99.5t-117.5 170t-44 244.5zM285 1448h301l106 -274h-182zM338 643h479q-16 119 -81.5 167t-147.5 48q-98 0 -163 -55t-87 -160z" />
<glyph unicode="&#xe9;" d="M70 516q0 129 38.5 229.5t107.5 169t162 104.5t202 36q100 0 173.5 -25.5t122 -59.5t74 -65t33.5 -43q31 -45 51.5 -98t31.5 -107.5t16 -104.5t5 -89h-757q23 -123 95.5 -188.5t195.5 -65.5q63 0 108 16.5t76 39t50 46t32 39.5l209 -121q-96 -129 -219 -194.5t-281 -65.5 q-100 0 -195.5 33t-169 99.5t-117.5 170t-44 244.5zM338 643h479q-16 119 -81.5 167t-147.5 48q-98 0 -163 -55t-87 -160zM471 1174l102 272h303l-221 -272h-184z" />
<glyph unicode="&#xea;" d="M70 516q0 129 38.5 229.5t107.5 169t162 104.5t202 36q100 0 173.5 -25.5t122 -59.5t74 -65t33.5 -43q31 -45 51.5 -98t31.5 -107.5t16 -104.5t5 -89h-757q23 -123 95.5 -188.5t195.5 -65.5q63 0 108 16.5t76 39t50 46t32 39.5l209 -121q-96 -129 -219 -194.5t-281 -65.5 q-100 0 -195.5 33t-169 99.5t-117.5 170t-44 244.5zM229 1171l228 275h241l228 -275h-250l-96 138l-103 -138h-248zM338 643h479q-16 119 -81.5 167t-147.5 48q-98 0 -163 -55t-87 -160z" />
<glyph unicode="&#xeb;" d="M70 516q0 129 38.5 229.5t107.5 169t162 104.5t202 36q100 0 173.5 -25.5t122 -59.5t74 -65t33.5 -43q31 -45 51.5 -98t31.5 -107.5t16 -104.5t5 -89h-757q23 -123 95.5 -188.5t195.5 -65.5q63 0 108 16.5t76 39t50 46t32 39.5l209 -121q-96 -129 -219 -194.5t-281 -65.5 q-100 0 -195.5 33t-169 99.5t-117.5 170t-44 244.5zM256 1202v244h231v-244h-231zM338 643h479q-16 119 -81.5 167t-147.5 48q-98 0 -163 -55t-87 -160zM668 1202v244h231v-244h-231z" />
<glyph unicode="&#xec;" horiz-adv-x="512" d="M-35 1448h301l106 -274h-182zM133 0v1024h244v-1024h-244z" />
<glyph unicode="&#xed;" horiz-adv-x="512" d="M133 0v1024h244v-1024h-244zM150 1174l102 272h303l-221 -272h-184z" />
<glyph unicode="&#xee;" horiz-adv-x="512" d="M-90 1171l228 275h241l228 -275h-250l-96 138l-103 -138h-248zM133 0v1024h244v-1024h-244z" />
<glyph unicode="&#xef;" horiz-adv-x="512" d="M-63 1202v244h231v-244h-231zM133 0v1024h244v-1024h-244zM349 1202v244h231v-244h-231z" />
<glyph unicode="&#xf0;" horiz-adv-x="1193" d="M72 522q0 127 42 226.5t111.5 168t157.5 104.5t180 36t139.5 -28t69.5 -48q-16 72 -48 124t-52 79l-336 -90l-39 108l293 80q-16 16 -25.5 26.5t-19.5 19.5t-21.5 20.5l-29.5 29.5l229 99q20 -23 34.5 -36.5t26 -26.5t23.5 -27.5t31 -36.5l190 51l41 -109l-158 -43 q63 -96 105.5 -189t67 -178t33.5 -162t9 -142q0 -125 -19.5 -202t-45.5 -130q-51 -102 -117.5 -158.5t-131 -82t-120 -30t-84.5 -4.5q-156 0 -259 54.5t-164.5 137.5t-87 179t-25.5 180zM328 524q0 -80 23.5 -141t61.5 -103t88 -62.5t105 -20.5q68 0 118 26.5t83 71.5 t48 103.5t13 121.5t-21.5 120.5t-54 100.5t-85 68t-113.5 25q-55 0 -103.5 -20.5t-85 -60.5t-57 -97.5t-20.5 -131.5z" />
<glyph unicode="&#xf1;" d="M129 0v1024h248v-121q10 14 28.5 36t51.5 44q47 35 111.5 53.5t123.5 18.5q88 0 159 -35t110 -88q47 -66 55 -148t8 -182v-602h-244v522q0 57 -1 95t-7 61q-16 68 -62 102.5t-106 34.5q-59 0 -110.5 -31.5t-77.5 -83.5q-29 -57 -34 -127.5t-5 -128.5v-444h-248zM219 1196 q4 45 13 82t36 78q6 8 17.5 24.5t32 33t49 28.5t65.5 12q39 0 78 -11t67 -22q35 -14 78 -28.5t66 -14.5q4 0 14 1t25 10q16 10 21 19t15 38h158q0 -4 -2 -17.5t-5 -28t-5 -26.5t-4 -18q-8 -27 -22.5 -55.5t-38 -52t-55.5 -39t-73 -15.5q-47 0 -92 15.5t-86 31.5 q-29 10 -60.5 21.5t-58.5 11.5q-33 0 -49 -20.5t-24 -57.5h-160z" />
<glyph unicode="&#xf2;" horiz-adv-x="1193" d="M72 516q0 117 39 216t107.5 171t164.5 112t211 40q106 0 202.5 -37t169 -105.5t115.5 -169t43 -227.5q0 -121 -37.5 -221t-106.5 -172t-164 -113t-212 -41q-121 0 -218 41t-168 115t-108.5 174t-37.5 217zM305 1448h301l106 -274h-182zM328 522q0 -80 22.5 -140 t60.5 -102t88 -63.5t105 -21.5q68 0 118 26.5t83 71.5t48 104.5t13 122.5t-20.5 120.5t-53 100.5t-86 68t-114.5 25q-57 0 -105.5 -23t-84 -62.5t-55 -98t-19.5 -128.5z" />
<glyph unicode="&#xf3;" horiz-adv-x="1193" d="M72 516q0 117 39 216t107.5 171t164.5 112t211 40q106 0 202.5 -37t169 -105.5t115.5 -169t43 -227.5q0 -121 -37.5 -221t-106.5 -172t-164 -113t-212 -41q-121 0 -218 41t-168 115t-108.5 174t-37.5 217zM328 522q0 -80 22.5 -140t60.5 -102t88 -63.5t105 -21.5 q68 0 118 26.5t83 71.5t48 104.5t13 122.5t-20.5 120.5t-53 100.5t-86 68t-114.5 25q-57 0 -105.5 -23t-84 -62.5t-55 -98t-19.5 -128.5zM492 1174l102 272h303l-221 -272h-184z" />
<glyph unicode="&#xf4;" horiz-adv-x="1193" d="M72 516q0 117 39 216t107.5 171t164.5 112t211 40q106 0 202.5 -37t169 -105.5t115.5 -169t43 -227.5q0 -121 -37.5 -221t-106.5 -172t-164 -113t-212 -41q-121 0 -218 41t-168 115t-108.5 174t-37.5 217zM249 1171l228 275h241l228 -275h-250l-96 138l-103 -138h-248z M328 522q0 -80 22.5 -140t60.5 -102t88 -63.5t105 -21.5q68 0 118 26.5t83 71.5t48 104.5t13 122.5t-20.5 120.5t-53 100.5t-86 68t-114.5 25q-57 0 -105.5 -23t-84 -62.5t-55 -98t-19.5 -128.5z" />
<glyph unicode="&#xf5;" horiz-adv-x="1193" d="M72 516q0 117 39 216t107.5 171t164.5 112t211 40q106 0 202.5 -37t169 -105.5t115.5 -169t43 -227.5q0 -121 -37.5 -221t-106.5 -172t-164 -113t-212 -41q-121 0 -218 41t-168 115t-108.5 174t-37.5 217zM240 1196q4 45 13 82t36 78q6 8 17.5 24.5t32 33t49 28.5 t65.5 12q39 0 78 -11t67 -22q35 -14 78 -28.5t66 -14.5q4 0 14 1t25 10q16 10 21 19t15 38h158q0 -4 -2 -17.5t-5 -28t-5 -26.5t-4 -18q-8 -27 -22.5 -55.5t-38 -52t-55.5 -39t-73 -15.5q-47 0 -92 15.5t-86 31.5q-29 10 -60.5 21.5t-58.5 11.5q-33 0 -49 -20.5t-24 -57.5 h-160zM328 522q0 -80 22.5 -140t60.5 -102t88 -63.5t105 -21.5q68 0 118 26.5t83 71.5t48 104.5t13 122.5t-20.5 120.5t-53 100.5t-86 68t-114.5 25q-57 0 -105.5 -23t-84 -62.5t-55 -98t-19.5 -128.5z" />
<glyph unicode="&#xf6;" horiz-adv-x="1193" d="M72 516q0 117 39 216t107.5 171t164.5 112t211 40q106 0 202.5 -37t169 -105.5t115.5 -169t43 -227.5q0 -121 -37.5 -221t-106.5 -172t-164 -113t-212 -41q-121 0 -218 41t-168 115t-108.5 174t-37.5 217zM279 1202v244h231v-244h-231zM328 522q0 -80 22.5 -140 t60.5 -102t88 -63.5t105 -21.5q68 0 118 26.5t83 71.5t48 104.5t13 122.5t-20.5 120.5t-53 100.5t-86 68t-114.5 25q-57 0 -105.5 -23t-84 -62.5t-55 -98t-19.5 -128.5zM691 1202v244h231v-244h-231z" />
<glyph unicode="&#xf7;" horiz-adv-x="1366" d="M0 489v211h1364v-211h-1364zM543 264q0 59 40 99t99 40t99 -39.5t40 -99.5q0 -59 -40 -99t-99 -40t-99 40t-40 99zM543 926q0 59 40 99t99 40t99 -40t40 -99t-40 -99.5t-99 -40.5t-99 40.5t-40 99.5z" />
<glyph unicode="&#xf8;" horiz-adv-x="1193" d="M18 162l117 90q-16 27 -45 92.5t-29 173.5q0 104 36 200.5t103.5 171.5t167 120t226.5 45q74 0 132 -14.5t103 -36t77 -45t55 -44.5l104 84l92 -114l-113 -90q29 -53 52.5 -119t23.5 -168q0 -94 -29.5 -190.5t-94 -173t-167 -126t-247.5 -49.5q-74 0 -128.5 13.5 t-96.5 35t-74.5 50t-63.5 59.5l-110 -86zM305 520q0 -47 5 -72.5t9 -46.5l461 369q-25 29 -53.5 46.5t-55 25.5t-49 10t-32.5 2q-33 0 -81 -13.5t-93 -49t-78 -101t-33 -170.5zM395 272q37 -47 90.5 -73.5t112.5 -26.5q35 0 84 14.5t93 51t75 100t31 162.5q0 55 -8.5 85.5 t-18.5 55.5z" />
<glyph unicode="&#xf9;" horiz-adv-x="1193" d="M127 432v592h248v-588q0 -31 1 -56.5t7 -45.5q20 -68 71.5 -98.5t118.5 -30.5q78 0 126.5 33.5t72.5 74.5q14 25 21.5 51.5t11.5 58.5t6 73t2 94v434h246v-1024h-246v104q-16 -16 -44 -37.5t-67.5 -42t-95 -35t-125.5 -14.5q-63 0 -110 12.5t-81 30t-56.5 38t-36.5 38.5 q-27 33 -41.5 69t-20.5 76t-7 88t-1 105zM305 1448h301l106 -274h-182z" />
<glyph unicode="&#xfa;" horiz-adv-x="1193" d="M127 432v592h248v-588q0 -31 1 -56.5t7 -45.5q20 -68 71.5 -98.5t118.5 -30.5q78 0 126.5 33.5t72.5 74.5q14 25 21.5 51.5t11.5 58.5t6 73t2 94v434h246v-1024h-246v104q-16 -16 -44 -37.5t-67.5 -42t-95 -35t-125.5 -14.5q-63 0 -110 12.5t-81 30t-56.5 38t-36.5 38.5 q-27 33 -41.5 69t-20.5 76t-7 88t-1 105zM492 1174l102 272h303l-221 -272h-184z" />
<glyph unicode="&#xfb;" horiz-adv-x="1193" d="M127 432v592h248v-588q0 -31 1 -56.5t7 -45.5q20 -68 71.5 -98.5t118.5 -30.5q78 0 126.5 33.5t72.5 74.5q14 25 21.5 51.5t11.5 58.5t6 73t2 94v434h246v-1024h-246v104q-16 -16 -44 -37.5t-67.5 -42t-95 -35t-125.5 -14.5q-63 0 -110 12.5t-81 30t-56.5 38t-36.5 38.5 q-27 33 -41.5 69t-20.5 76t-7 88t-1 105zM249 1171l228 275h241l228 -275h-250l-96 138l-103 -138h-248z" />
<glyph unicode="&#xfc;" horiz-adv-x="1193" d="M127 432v592h248v-588q0 -31 1 -56.5t7 -45.5q20 -68 71.5 -98.5t118.5 -30.5q78 0 126.5 33.5t72.5 74.5q14 25 21.5 51.5t11.5 58.5t6 73t2 94v434h246v-1024h-246v104q-16 -16 -44 -37.5t-67.5 -42t-95 -35t-125.5 -14.5q-63 0 -110 12.5t-81 30t-56.5 38t-36.5 38.5 q-27 33 -41.5 69t-20.5 76t-7 88t-1 105zM272 1202v244h231v-244h-231zM684 1202v244h231v-244h-231z" />
<glyph unicode="&#xfd;" horiz-adv-x="980" d="M25 1024h264l227 -764l195 764h252l-261 -893l-57 -192q-27 -80 -55.5 -136.5t-67.5 -90.5t-90 -49t-123 -15q-59 0 -92 4t-55 8v215q33 -6 65 -6q14 0 48 3t63 24q23 14 40 40.5t17 43.5zM383 1174l102 272h303l-221 -272h-184z" />
<glyph unicode="&#xfe;" horiz-adv-x="1193" d="M133 -334v1780h244v-516q14 14 37.5 35.5t57.5 42t80 34t105 13.5q113 0 200 -47t145.5 -124t89 -176.5t30.5 -205.5q0 -117 -34.5 -214.5t-96 -168t-146.5 -110.5t-186 -40q-59 0 -103 12.5t-78 30t-58.5 37t-42.5 35.5v-418h-244zM375 518q-2 -80 17.5 -139.5t54 -99 t80.5 -59t98 -19.5q45 0 89 16t78.5 53t57 97.5t22.5 146.5q0 96 -28.5 155.5t-69.5 93.5t-84 45t-69 11q-43 0 -86 -16.5t-78 -52t-57.5 -93t-24.5 -139.5z" />
<glyph unicode="&#xff;" horiz-adv-x="980" d="M25 1024h264l227 -764l195 764h252l-261 -893l-57 -192q-27 -80 -55.5 -136.5t-67.5 -90.5t-90 -49t-123 -15q-59 0 -92 4t-55 8v215q33 -6 65 -6q14 0 48 3t63 24q23 14 40 40.5t17 43.5zM168 1202v244h231v-244h-231zM580 1202v244h231v-244h-231z" />
<glyph unicode="&#x152;" horiz-adv-x="2260" d="M96 694q0 195 62.5 342.5t162 246.5t225.5 149.5t253 50.5q61 0 112.5 -10.5t92 -25.5t71.5 -32.5t53 -30.5v62h1031v-246h-762v-346h665v-233h-665v-377h809v-244h-1078v51q-20 -10 -52 -25.5t-75 -29.5t-99 -23.5t-126 -9.5q-39 0 -95 5t-120.5 26.5t-134.5 61.5 t-135 112q-68 74 -107 150.5t-58.5 147.5t-24.5 130t-5 98zM383 700q0 -127 36 -220t96 -154.5t140 -92t166 -30.5q82 0 140.5 22.5t95.5 52t54 60.5t17 47v545q0 53 -2 90t-18 63q-14 25 -41 49.5t-64.5 46t-86 35t-105.5 13.5q-82 0 -159 -32t-137 -96.5t-96 -163.5 t-36 -235z" />
<glyph unicode="&#x153;" horiz-adv-x="1878" d="M70 502q0 123 37.5 224t105.5 174t162 114t205 41q86 0 178 -31t184 -123q104 94 190.5 124t170.5 30q123 0 227 -49q102 -53 172 -152q72 -100 89 -204.5t21 -196.5h-735q16 -117 83 -191t183 -74q63 0 129 31t119 109l199 -121q-16 -23 -40 -50.5t-64 -62.5 q-82 -66 -164 -95.5t-193 -29.5q-25 0 -70 3t-97 20.5t-107.5 54.5t-102.5 107q-51 -70 -108.5 -107t-110.5 -54.5t-97 -20.5t-65 -3q-129 0 -223 43t-155.5 117t-92 170t-30.5 203zM317 510q0 -57 14.5 -113.5t46.5 -101.5t81 -73.5t121 -28.5q47 0 94 17t84 54t60.5 96.5 t23.5 143.5q0 82 -22.5 142.5t-59.5 100t-85 59t-100 19.5q-63 0 -111 -25.5t-81 -68.5t-49.5 -100.5t-16.5 -120.5zM1077 629h451q-18 96 -77.5 154.5t-150.5 58.5q-94 0 -150 -59.5t-73 -153.5z" />
<glyph unicode="&#x178;" horiz-adv-x="1280" d="M20 1446h306l313 -600l317 600h301l-487 -875v-571h-266v571zM319 1581v252h230v-252h-230zM729 1581v252h234v-252h-234z" />
<glyph unicode="&#x2c6;" horiz-adv-x="555" d="M-70 1171l228 275h241l228 -275h-250l-96 138l-103 -138h-248z" />
<glyph unicode="&#x2dc;" horiz-adv-x="555" d="M-90 1196q4 45 13 82t36 78q6 8 17.5 24.5t32 33t49 28.5t65.5 12q39 0 78 -11t67 -22q35 -14 78 -28.5t66 -14.5q4 0 14 1t25 10q16 10 21 19t15 38h158q0 -4 -2 -17.5t-5 -28t-5 -26.5t-4 -18q-8 -27 -22.5 -55.5t-38 -52t-55.5 -39t-73 -15.5q-47 0 -92 15.5t-86 31.5 q-29 10 -60.5 21.5t-58.5 11.5q-33 0 -49 -20.5t-24 -57.5h-160z" />
<glyph unicode="&#x2000;" horiz-adv-x="986" />
<glyph unicode="&#x2001;" horiz-adv-x="1972" />
<glyph unicode="&#x2002;" horiz-adv-x="986" />
<glyph unicode="&#x2003;" horiz-adv-x="1972" />
<glyph unicode="&#x2004;" horiz-adv-x="657" />
<glyph unicode="&#x2005;" horiz-adv-x="493" />
<glyph unicode="&#x2006;" horiz-adv-x="328" />
<glyph unicode="&#x2007;" horiz-adv-x="328" />
<glyph unicode="&#x2008;" horiz-adv-x="246" />
<glyph unicode="&#x2009;" horiz-adv-x="394" />
<glyph unicode="&#x200a;" horiz-adv-x="109" />
<glyph unicode="&#x2010;" horiz-adv-x="724" d="M109 528v230h507v-230h-507z" />
<glyph unicode="&#x2011;" horiz-adv-x="724" d="M109 528v230h507v-230h-507z" />
<glyph unicode="&#x2012;" horiz-adv-x="724" d="M109 528v230h507v-230h-507z" />
<glyph unicode="&#x2013;" d="M86 528v228h979v-228h-979z" />
<glyph unicode="&#x2014;" horiz-adv-x="1449" d="M86 528v228h1278v-228h-1278z" />
<glyph unicode="&#x2018;" horiz-adv-x="425" d="M74 887v248q0 59 1 92t11 61q14 45 47 75t69 48.5t70.5 27.5t57.5 13v-121q-18 -4 -39 -11t-38 -24.5t-26.5 -48t-7.5 -80.5h127v-280h-272z" />
<glyph unicode="&#x2019;" horiz-adv-x="425" d="M82 1161v285h266v-254q0 -43 -1 -74t-5 -55.5t-12 -44t-25 -39.5q-25 -31 -53.5 -49.5t-56 -28.5t-54 -13t-45.5 -5v108q41 12 63.5 28.5t33 38t12.5 47t2 56.5h-125z" />
<glyph unicode="&#x201a;" horiz-adv-x="425" d="M80 0v285h266v-254q0 -43 -1 -74t-5 -55.5t-12.5 -44t-24.5 -39.5q-25 -31 -53.5 -49.5t-56 -28.5t-54 -13t-45.5 -6v109q41 12 63.5 28.5t33 38t12.5 47t2 56.5h-125z" />
<glyph unicode="&#x201c;" horiz-adv-x="768" d="M76 893v252q0 43 1 73.5t5 55t12 44t25 40.5q47 59 101 74.5t108 23.5v-108q-41 -12 -63.5 -28.5t-33 -38t-12.5 -47.5t-2 -58h125v-283h-266zM426 893v252q0 43 1 73.5t5 55t12.5 44t24.5 40.5q47 59 101.5 74.5t107.5 23.5v-108q-41 -12 -63.5 -28.5t-33 -38 t-12.5 -47.5t-2 -58h125v-283h-266z" />
<glyph unicode="&#x201d;" horiz-adv-x="768" d="M76 1163v283h266v-252q0 -43 -1 -73.5t-5 -55.5t-12.5 -44.5t-24.5 -39.5q-47 -59 -101.5 -74.5t-107.5 -23.5v108q41 12 63.5 28.5t33 38t12.5 47t2 58.5h-125zM426 1163v283h266v-252q0 -43 -1 -73.5t-5 -55.5t-12 -44.5t-25 -39.5q-47 -59 -101 -74.5t-108 -23.5v108 q41 12 63.5 28.5t33 38t12.5 47t2 58.5h-125z" />
<glyph unicode="&#x201e;" horiz-adv-x="768" d="M76 0v285h266v-254q0 -43 -1 -74t-5 -55.5t-12.5 -44t-24.5 -39.5q-25 -31 -53.5 -49.5t-56 -28.5t-54 -13t-45.5 -6v109q41 12 63.5 28.5t33 38t12.5 47t2 56.5h-125zM424 0v285h266v-254q0 -43 -1 -74t-5 -55.5t-12 -44t-25 -39.5q-25 -31 -53.5 -49.5t-56 -28.5 t-54 -13t-45.5 -6v109q41 12 63.5 28.5t33 38t12.5 47t2 56.5h-125z" />
<glyph unicode="&#x2022;" horiz-adv-x="681" d="M49 721q0 59 22.5 112.5t62.5 93.5t93.5 62.5t112.5 22.5t112.5 -22.5t93.5 -62.5t62.5 -93.5t22.5 -112.5t-22.5 -112.5t-62.5 -93.5t-93.5 -62.5t-112.5 -22.5t-112.5 22.5t-93.5 62.5t-62.5 93.5t-22.5 112.5z" />
<glyph unicode="&#x2026;" horiz-adv-x="2048" d="M207 0v281h270v-281h-270zM889 0v281h270v-281h-270zM1571 0v281h270v-281h-270z" />
<glyph unicode="&#x202f;" horiz-adv-x="394" />
<glyph unicode="&#x2039;" horiz-adv-x="512" d="M115 500v288l291 234v-234l-177 -145l177 -143v-230z" />
<glyph unicode="&#x203a;" horiz-adv-x="512" d="M102 264v232l177 147l-177 141v232l291 -232v-288z" />
<glyph unicode="&#x205f;" horiz-adv-x="493" />
<glyph unicode="&#x2122;" horiz-adv-x="1406" d="M16 1327v119h570v-119h-209v-561h-146v561h-215zM643 766v680h188l164 -514l156 514h190v-680h-141l6 391l8 139l-30 -112l-127 -418h-129l-131 420l-31 108l10 -137l8 -391h-141z" />
<glyph unicode="&#xe000;" horiz-adv-x="1024" d="M0 0v1024h1024v-1024h-1024z" />
</font>
</defs>
</svg>
