<?xml version="1.0" encoding="UTF-8" ?>
<!DOCTYPE svg PUBLIC "-//W3C//DTD SVG 1.1//EN" "http://www.w3.org/Graphics/SVG/1.1/DTD/svg11.dtd">
<svg version="1.1" xmlns="http://www.w3.org/2000/svg">
<path fill="#070707" d=" M 657.42 69.54 C 670.30 69.17 683.37 68.93 695.98 72.04 C 713.04 75.38 729.28 82.07 744.38 90.59 C 755.33 96.94 765.93 104.10 775.03 112.97 C 783.05 120.96 792.87 127.17 799.54 136.48 C 809.23 149.72 816.98 164.47 822.08 180.08 C 827.32 197.69 832.17 215.58 833.39 234.00 C 833.87 244.67 835.68 255.25 835.68 265.95 C 835.73 284.02 835.97 302.15 833.73 320.12 C 833.37 325.79 831.48 331.71 833.86 337.20 C 838.76 349.80 841.71 363.01 844.72 376.16 C 847.43 387.49 849.11 399.03 850.72 410.56 C 854.79 436.05 854.53 462.17 850.88 487.70 C 849.24 499.42 844.98 510.53 841.94 521.92 C 840.23 528.32 837.03 534.17 834.02 540.03 C 821.01 566.91 798.41 588.48 772.13 602.31 C 759.25 608.29 746.12 613.87 732.41 617.66 C 716.93 622.13 701.00 624.77 685.04 626.77 C 675.41 628.14 665.68 627.14 656.00 627.43 C 641.61 627.90 627.41 625.12 613.26 622.98 C 602.07 621.31 591.12 618.39 580.46 614.65 C 546.62 604.16 515.32 583.02 496.19 552.80 C 485.57 536.84 478.49 518.71 474.35 500.03 C 469.66 480.05 468.98 459.41 469.39 438.97 C 469.53 427.68 471.43 416.52 472.81 405.33 C 475.58 385.99 479.62 366.81 485.10 348.06 C 486.95 341.42 490.95 335.16 490.35 328.03 C 489.90 321.02 488.74 314.07 488.34 307.06 C 487.12 295.09 487.24 283.03 487.28 271.00 C 487.25 251.58 489.38 232.22 492.67 213.09 C 496.58 191.70 502.88 170.52 513.45 151.43 C 517.83 143.76 523.03 136.53 529.29 130.28 C 542.31 117.15 556.25 104.82 571.86 94.83 C 580.56 89.51 590.02 85.65 599.05 80.96 C 604.42 78.11 610.25 76.23 616.16 74.87 C 626.63 72.44 637.16 69.44 648.01 69.64 C 651.14 69.67 654.28 69.64 657.42 69.54 Z" />
<path fill="#070707" d=" M 455.10 140.00 C 456.72 122.40 460.78 105.13 463.09 87.62 C 465.00 91.86 466.13 96.42 468.36 100.51 C 472.25 108.24 478.37 114.55 484.95 120.05 C 494.83 128.64 506.30 135.08 518.09 140.62 C 507.05 150.21 501.82 164.28 496.66 177.53 C 486.83 207.30 482.83 238.74 482.23 269.99 C 482.11 275.18 482.24 280.38 481.86 285.56 C 480.45 285.60 479.05 285.63 477.65 285.67 C 476.08 290.44 474.71 295.28 473.20 300.06 C 472.69 302.05 471.00 303.33 469.78 304.86 C 467.03 307.90 466.73 312.18 465.75 315.97 C 461.91 331.66 458.80 347.52 454.94 363.21 C 454.36 367.26 449.88 368.85 448.53 372.54 C 445.14 378.11 445.59 384.78 444.91 391.01 C 444.06 405.74 442.00 420.36 440.50 435.03 C 440.24 438.14 440.12 441.30 439.36 444.35 C 437.82 446.73 434.97 448.30 434.32 451.21 C 435.38 477.77 438.06 504.30 439.11 530.85 C 438.53 533.62 437.72 536.54 438.72 539.33 C 446.95 563.98 456.14 588.96 472.40 609.60 C 475.63 614.52 481.10 617.07 485.92 620.12 C 495.75 626.28 505.62 632.37 515.51 638.44 C 521.93 642.23 528.16 646.60 535.44 648.59 C 541.93 650.47 548.00 653.54 554.33 655.81 C 561.44 656.87 568.79 656.91 575.62 659.47 C 582.50 661.70 588.42 665.99 594.76 669.36 C 604.85 674.67 615.73 678.44 626.85 680.95 C 636.85 683.29 647.70 683.99 657.47 680.31 C 657.48 678.60 657.49 676.91 657.52 675.21 C 660.12 675.23 662.73 675.24 665.34 675.23 C 665.38 677.13 665.43 679.03 665.53 680.94 C 674.31 682.61 683.37 683.54 692.24 681.85 C 704.15 679.70 715.51 675.23 726.53 670.33 C 734.08 667.13 740.46 661.50 748.51 659.42 C 753.59 658.13 758.68 656.32 764.00 656.56 C 767.22 656.63 770.25 655.35 773.18 654.16 C 778.90 651.70 784.67 649.35 790.60 647.41 C 798.79 644.67 806.00 639.78 813.29 635.26 C 823.97 628.66 834.46 621.76 844.98 614.91 C 851.75 610.63 855.55 603.32 859.74 596.77 C 870.64 579.12 876.47 559.07 883.94 539.88 C 885.85 536.04 883.46 531.99 883.65 528.02 C 883.75 522.20 884.79 516.45 885.21 510.66 C 886.23 491.12 887.23 471.58 888.80 452.08 C 889.17 449.86 886.96 448.68 885.80 447.17 C 884.06 445.44 883.22 443.07 882.81 440.72 C 880.21 419.96 878.87 399.06 876.74 378.27 C 874.43 375.04 873.90 370.82 870.94 368.04 C 868.05 365.35 867.52 361.29 866.67 357.65 C 863.18 341.44 859.36 325.31 855.48 309.20 C 854.97 305.95 851.65 304.35 850.48 301.42 C 848.31 296.48 847.69 290.87 844.76 286.26 C 843.55 285.95 842.35 285.69 841.14 285.48 C 841.12 273.61 839.94 261.77 839.63 249.91 C 837.96 230.86 835.53 211.82 830.88 193.24 C 827.95 180.03 822.71 167.45 816.52 155.45 C 813.59 149.89 809.59 144.95 804.92 140.77 C 820.66 133.14 835.86 123.75 847.73 110.73 C 853.26 104.45 856.75 96.67 858.82 88.63 C 859.12 88.46 859.72 88.10 860.03 87.92 C 865.63 122.06 871.46 156.32 872.53 190.96 C 872.96 198.96 874.09 206.96 873.37 214.98 C 873.58 228.49 872.64 242.09 869.52 255.27 C 867.76 262.76 865.31 270.35 860.42 276.42 C 858.18 279.25 854.97 281.04 852.50 283.64 C 851.75 287.91 854.14 292.03 854.97 296.17 C 855.44 300.29 860.37 301.72 860.90 305.88 C 865.22 324.27 869.86 342.61 873.68 361.11 C 874.27 364.31 878.99 364.60 879.01 368.14 C 879.35 371.77 882.63 374.31 882.64 378.01 C 884.82 399.21 886.24 420.59 889.15 441.65 C 890.64 444.25 894.76 445.39 894.42 448.91 C 893.37 473.97 892.05 499.06 889.49 524.02 C 888.82 529.26 892.05 534.34 890.46 539.54 C 886.31 553.18 881.23 566.53 875.43 579.55 C 870.44 590.95 864.51 602.03 856.93 611.93 C 851.72 618.57 844.35 622.90 837.30 627.29 C 825.99 634.31 814.89 641.70 803.35 648.34 C 790.52 654.99 775.51 657.46 764.12 666.81 C 764.33 665.51 764.75 662.91 764.96 661.61 C 758.16 663.57 750.66 663.59 744.54 667.51 C 732.30 675.15 719.00 681.20 705.00 684.79 C 693.99 687.65 682.46 690.03 671.08 688.00 C 667.41 687.48 663.86 685.66 660.10 686.32 C 653.44 687.27 646.79 688.87 640.02 688.59 C 627.32 688.04 614.80 684.87 603.15 679.84 C 596.05 676.83 588.83 673.95 582.34 669.73 C 575.10 665.02 566.45 663.30 558.09 661.81 C 558.34 663.51 558.63 665.21 558.92 666.92 C 551.77 661.05 543.03 657.81 534.45 654.68 C 517.43 648.69 502.76 637.93 487.60 628.44 C 482.94 625.44 478.32 622.38 473.71 619.30 C 466.19 614.00 461.49 605.87 456.84 598.15 C 446.67 581.02 440.61 561.94 433.75 543.35 C 432.91 540.44 431.07 537.40 432.23 534.33 C 435.00 526.38 432.48 517.94 432.10 509.81 C 430.98 489.49 429.83 469.17 428.54 448.87 C 427.95 444.57 434.22 443.81 434.43 439.61 C 436.04 423.76 437.84 407.93 439.24 392.06 C 439.65 386.53 439.75 380.95 440.61 375.47 C 442.48 372.48 444.08 369.33 444.53 365.78 C 446.72 364.68 449.10 363.25 449.43 360.57 C 453.60 342.06 457.85 323.57 462.31 305.13 C 462.76 301.84 466.82 300.82 467.53 297.61 C 468.84 293.19 470.46 288.80 470.96 284.20 C 468.38 281.43 464.78 279.63 462.58 276.41 C 453.98 265.06 452.34 250.45 450.57 236.77 C 449.85 231.88 449.65 226.94 449.70 222.00 C 449.80 213.34 449.15 204.65 449.97 196.01 C 450.88 188.69 450.43 181.29 451.26 173.96 C 451.60 162.55 453.65 151.30 455.10 140.00 Z" />
<path fill="#fefefe" d=" M 582.90 159.86 C 591.08 147.65 604.77 140.46 618.55 136.42 C 616.96 151.49 614.32 167.44 604.62 179.64 C 598.47 187.64 586.79 190.52 577.60 186.33 C 576.36 177.25 577.62 167.55 582.90 159.86 Z" />
<path fill="#fefefe" d=" M 704.37 136.40 C 717.06 140.20 729.66 146.39 738.00 157.01 C 744.44 165.02 747.45 176.15 745.04 186.17 C 735.81 190.87 723.97 187.21 717.89 179.11 C 708.56 166.95 706.01 151.25 704.37 136.40 Z" />
<path fill="#fefefe" d=" M 655.35 232.09 C 662.54 230.93 669.81 232.04 676.98 232.79 C 697.01 235.46 716.36 242.35 734.02 252.08 C 752.11 262.27 768.91 274.73 784.02 288.97 C 793.78 298.56 803.92 307.89 812.04 318.98 C 818.87 328.24 827.21 336.78 830.92 347.93 C 837.46 368.04 841.45 388.87 845.10 409.67 C 846.01 419.77 847.21 429.85 847.74 439.97 C 847.93 458.33 846.74 476.77 843.03 494.78 C 838.17 519.22 827.96 542.83 812.32 562.32 C 803.29 572.33 793.34 581.64 782.04 589.07 C 773.46 594.93 764.02 599.38 754.52 603.54 C 745.78 607.36 736.39 609.28 727.43 612.49 C 717.87 615.99 707.68 616.97 697.67 618.38 C 690.40 619.11 683.33 621.38 675.98 621.38 C 665.64 621.46 655.30 621.69 644.97 621.31 C 624.46 619.13 603.86 616.21 584.25 609.59 C 574.02 605.90 564.06 601.49 554.30 596.72 C 543.82 591.76 534.48 584.76 525.52 577.49 C 514.51 568.69 505.62 557.47 498.89 545.13 C 492.85 534.02 486.83 522.71 483.58 510.41 C 480.72 499.98 479.15 489.26 477.26 478.63 C 474.77 464.89 475.90 450.88 475.63 437.00 C 475.48 423.54 477.88 410.24 479.83 396.97 C 482.68 380.59 487.71 364.70 491.76 348.60 C 492.92 343.49 495.69 338.96 498.89 334.88 C 506.72 324.76 513.89 314.05 522.91 304.92 C 540.71 286.84 559.60 269.50 581.43 256.37 C 592.53 250.62 603.60 244.68 615.29 240.21 C 621.57 238.02 628.01 236.29 634.43 234.60 C 641.26 232.76 648.38 233.00 655.35 232.09 Z" />
<path fill="#070707" d=" M 655.44 244.33 C 659.63 242.59 664.43 242.90 668.60 244.53 C 674.14 246.64 679.72 248.67 685.03 251.31 C 677.62 263.93 669.57 276.16 661.85 288.58 C 656.01 281.66 651.73 273.63 646.97 265.97 C 644.11 261.00 640.75 256.35 637.78 251.46 C 643.54 248.79 649.51 246.60 655.44 244.33 Z" />
<path fill="#070707" d=" M 604.99 261.00 C 606.50 259.87 608.56 259.83 610.13 260.87 C 618.89 265.97 625.16 274.35 629.97 283.09 C 638.95 299.24 642.37 317.82 643.53 336.07 C 643.88 338.66 642.02 340.69 640.55 342.57 C 620.34 367.53 596.99 389.80 572.39 410.39 C 548.41 430.13 523.12 448.45 496.11 463.83 C 489.63 430.48 493.26 395.17 507.10 364.08 C 521.37 332.12 544.27 304.21 572.09 283.07 C 582.54 274.97 593.66 267.78 604.99 261.00 Z" />
<path fill="#070707" d=" M 712.83 260.78 C 714.37 259.67 716.39 260.07 717.93 260.96 C 748.07 278.59 776.02 301.00 796.28 329.71 C 820.62 363.68 833.89 406.44 829.21 448.26 C 828.53 453.60 827.72 458.94 826.34 464.15 C 794.27 444.12 763.12 422.39 734.99 397.04 C 715.48 379.51 696.99 360.76 680.59 340.27 C 678.86 338.63 679.41 336.13 679.48 334.03 C 680.78 316.70 684.31 299.20 692.62 283.78 C 697.35 274.64 703.98 266.22 712.83 260.78 Z" />
<path fill="#070707" d=" M 648.29 420.29 C 652.77 415.52 656.36 409.95 661.05 405.37 C 663.02 405.22 663.93 407.67 665.21 408.87 C 675.82 423.11 689.03 435.20 703.26 445.74 C 721.05 458.93 740.18 470.21 759.84 480.36 C 770.53 486.00 781.70 490.66 792.56 495.95 C 791.74 505.42 788.64 514.57 785.58 523.53 C 779.61 540.10 770.41 555.52 758.43 568.44 C 745.25 582.39 728.43 592.34 710.86 599.75 C 699.14 605.56 686.95 611.10 673.82 612.63 C 666.42 613.71 658.67 614.89 651.39 612.54 C 647.75 611.52 643.87 611.94 640.25 610.82 C 634.42 609.12 628.51 607.56 622.98 605.01 C 605.62 596.65 587.32 589.25 572.79 576.23 C 549.15 555.97 535.40 526.22 530.24 495.92 C 551.23 486.58 571.90 476.46 591.54 464.51 C 612.11 452.11 631.97 438.04 648.29 420.29 Z" />
</svg>
