<?xml version="1.0" encoding="UTF-8" ?>
<!DOCTYPE svg PUBLIC "-//W3C//DTD SVG 1.1//EN" "http://www.w3.org/Graphics/SVG/1.1/DTD/svg11.dtd">
<svg width="166pt" height="92pt" viewBox="0 0 166 92" version="1.1" xmlns="http://www.w3.org/2000/svg">
<path fill="#ffffff" d=" M 0.00 0.00 L 166.00 0.00 L 166.00 92.00 L 0.00 92.00 L 0.00 0.00 Z" />
<path fill="#494646" d=" M 25.33 5.64 C 37.75 0.90 53.18 9.66 55.48 22.75 C 57.82 30.08 54.94 37.96 57.58 45.20 C 59.67 53.33 60.23 62.47 56.01 70.04 C 51.47 77.95 41.72 81.32 32.98 80.87 C 24.84 81.29 15.86 78.83 10.74 72.08 C 5.89 65.82 5.62 57.37 6.77 49.86 C 7.26 46.21 8.75 42.75 9.05 39.07 C 8.81 31.02 8.61 22.34 12.87 15.16 C 15.84 10.75 20.41 7.54 25.33 5.64 Z" />
<path fill="#494646" d=" M 5.29 7.41 C 7.02 10.38 9.58 12.72 12.65 14.27 C 8.68 19.73 8.11 26.64 8.30 33.17 C 5.67 37.78 4.97 43.12 3.26 48.08 C 1.83 57.80 0.18 69.01 6.21 77.57 C 9.38 81.08 13.83 83.35 18.29 84.78 C 23.11 85.82 27.49 89.54 32.65 87.97 C 34.67 88.18 36.79 88.57 38.76 87.82 C 45.80 84.81 54.20 83.59 59.35 77.38 C 65.58 68.44 63.29 57.16 62.07 47.13 C 60.12 42.80 59.38 38.07 57.69 33.65 C 56.78 27.04 56.95 19.79 52.67 14.23 C 55.85 12.65 58.64 10.30 60.20 7.04 C 60.81 14.30 62.41 21.57 61.48 28.87 C 61.26 30.92 60.05 32.63 59.01 34.33 C 61.01 40.42 63.35 46.53 63.85 52.97 C 65.25 61.61 65.26 71.43 59.76 78.75 C 55.53 83.08 49.69 85.23 44.01 86.92 C 38.47 89.89 31.96 88.75 25.94 88.67 C 19.10 85.90 11.41 84.44 5.93 79.11 C 3.66 76.21 2.12 72.69 1.38 69.09 C 1.17 61.33 0.86 53.43 2.79 45.84 C 4.06 42.01 4.92 38.06 6.33 34.28 C 5.05 32.37 3.92 30.28 3.80 27.93 C 3.11 21.05 4.47 14.21 5.29 7.41 Z" />
<path fill="#ffffff" d=" M 20.86 21.01 C 20.68 17.12 23.76 14.62 27.09 13.39 C 26.57 15.37 26.30 17.50 25.18 19.27 C 24.37 20.89 22.31 20.54 20.86 21.01 Z" />
<path fill="#ffffff" d=" M 38.32 13.33 C 41.61 14.65 44.65 17.05 44.63 20.95 C 40.02 21.64 38.86 16.83 38.32 13.33 Z" />
<path fill="#494646" d=" M 76.08 21.05 C 79.05 19.61 82.85 19.55 85.73 21.23 C 88.16 22.69 87.88 25.83 88.21 28.25 C 86.55 28.26 84.90 28.27 83.26 28.28 C 83.09 26.92 82.88 25.56 82.61 24.22 C 81.32 23.88 80.01 23.60 78.69 23.38 C 78.36 24.91 77.80 26.47 78.09 28.05 C 80.73 31.03 85.06 32.04 87.34 35.41 C 88.41 38.02 88.19 41.04 87.71 43.76 C 85.50 47.81 79.67 47.49 75.90 46.15 C 72.42 44.63 73.11 40.34 72.90 37.27 C 74.46 37.27 76.02 37.26 77.58 37.24 C 77.70 39.12 77.78 41.02 78.27 42.85 C 79.65 43.09 81.03 43.31 82.42 43.52 C 82.77 41.43 83.33 39.27 82.79 37.16 C 80.07 34.51 75.66 33.71 73.80 30.20 C 72.74 27.16 72.76 22.69 76.08 21.05 Z" />
<path fill="#494646" d=" M 94.54 20.00 C 96.39 20.00 98.25 20.00 100.10 20.00 C 101.73 29.00 103.41 38.00 105.05 47.00 C 103.39 47.00 101.73 47.00 100.08 47.00 C 99.89 45.68 99.70 44.35 99.50 43.03 C 97.99 43.01 96.48 43.00 94.97 42.99 C 94.72 44.32 94.48 45.66 94.23 47.00 C 92.61 47.00 90.98 47.00 89.36 47.00 C 91.10 38.00 92.77 28.99 94.54 20.00 Z" />
<path fill="#494646" d=" M 105.26 20.00 C 110.09 20.00 114.91 20.00 119.74 20.00 C 119.73 21.25 119.73 22.49 119.73 23.73 C 118.15 23.73 116.58 23.73 115.00 23.74 C 115.00 31.49 115.00 39.24 115.00 47.00 C 113.33 47.00 111.67 47.00 110.00 47.00 C 110.00 39.24 110.00 31.49 110.00 23.74 C 108.42 23.73 106.84 23.73 105.27 23.73 C 105.27 22.49 105.26 21.25 105.26 20.00 Z" />
<path fill="#494646" d=" M 120.75 20.00 C 122.47 20.00 124.19 20.00 125.91 20.00 C 126.78 24.55 127.66 29.10 128.51 33.66 C 129.43 29.12 130.27 24.56 131.08 20.00 C 132.80 20.00 134.52 20.00 136.25 20.00 C 134.15 28.93 130.02 37.62 130.99 47.00 C 129.33 47.00 127.66 47.00 126.00 47.00 C 127.06 37.60 122.91 28.92 120.75 20.00 Z" />
<path fill="#494646" d=" M 141.54 20.01 C 143.39 20.00 145.24 20.00 147.10 20.00 C 148.73 29.00 150.41 38.00 152.05 47.00 C 150.39 47.00 148.73 47.00 147.08 47.00 C 146.89 45.68 146.70 44.36 146.51 43.04 C 145.00 43.02 143.48 43.00 141.98 42.99 C 141.72 44.32 141.47 45.66 141.23 47.00 C 139.60 47.00 137.98 47.00 136.36 47.00 C 138.10 38.00 139.78 29.00 141.54 20.01 Z" />
<path fill="#ffffff" d=" M 27.40 27.62 C 34.12 25.31 41.37 28.07 46.70 32.27 C 51.23 35.87 55.83 40.29 56.79 46.27 C 59.04 54.48 58.94 63.86 53.98 71.09 C 49.19 77.64 40.67 79.84 32.96 80.29 C 25.40 80.08 17.19 77.94 12.09 71.98 C 7.06 65.89 6.85 57.45 7.78 49.98 C 8.54 46.12 9.28 42.02 11.90 38.92 C 15.99 33.95 21.18 29.59 27.40 27.62 Z" />
<path fill="#494646" d=" M 29.26 29.35 C 31.51 28.48 33.87 28.40 36.12 29.29 C 35.01 31.08 33.88 32.86 32.76 34.65 C 31.58 32.89 30.41 31.13 29.26 29.35 Z" />
<path fill="#ffffff" d=" M 95.54 39.00 C 96.18 35.02 96.70 31.03 97.35 27.05 C 97.86 31.03 98.43 35.01 98.92 39.00 C 98.08 39.00 96.38 39.00 95.54 39.00 Z" />
<path fill="#ffffff" d=" M 144.33 27.06 C 144.86 31.04 145.43 35.02 145.93 39.00 C 145.08 39.00 143.39 39.00 142.54 39.00 C 143.18 35.03 143.70 31.04 144.33 27.06 Z" />
<path fill="#494646" d=" M 12.67 42.67 C 15.58 37.34 20.42 33.46 25.53 30.38 C 28.71 33.13 29.92 37.21 30.49 41.23 C 24.73 48.28 17.62 54.14 9.81 58.80 C 9.14 53.29 9.76 47.49 12.67 42.67 Z" />
<path fill="#494646" d=" M 35.33 41.54 C 34.78 37.41 36.91 33.23 39.80 30.31 C 45.66 33.90 51.25 38.57 53.91 45.08 C 55.93 49.38 56.05 54.23 55.52 58.87 C 48.08 54.04 40.69 48.71 35.33 41.54 Z" />
<path fill="#ef4f2a" d=" M 73.00 50.00 C 74.66 50.00 76.33 50.00 77.99 50.00 C 77.99 53.51 78.00 57.02 78.06 60.52 C 79.77 57.01 81.52 53.50 83.26 50.00 C 84.92 50.00 86.58 50.00 88.24 50.00 C 86.28 53.91 84.25 57.79 82.27 61.69 C 84.31 66.80 86.35 71.91 88.48 76.99 C 86.69 76.99 84.91 77.00 83.13 77.01 C 81.44 72.63 79.67 68.28 78.12 63.86 C 77.97 68.24 77.99 72.62 78.00 77.00 C 76.33 77.00 74.67 77.00 73.00 77.00 C 73.00 68.00 73.00 59.00 73.00 50.00 Z" />
<path fill="#ef4f2a" d=" M 90.00 50.00 C 91.66 50.00 93.33 50.00 95.00 50.00 C 95.11 57.00 94.78 64.01 95.12 71.00 C 94.94 73.10 97.32 72.54 98.65 72.97 C 99.36 65.34 98.85 57.66 99.00 50.00 C 100.67 50.00 102.33 50.00 104.00 50.00 C 103.86 57.35 104.27 64.72 103.83 72.06 C 103.07 78.74 91.14 78.78 90.23 72.13 C 89.66 64.78 90.17 57.37 90.00 50.00 Z" />
<path fill="#ef4f2a" d=" M 108.00 50.00 C 110.61 50.00 113.23 50.00 115.85 50.00 C 116.69 56.00 118.18 61.94 118.15 68.03 C 118.31 68.20 118.61 68.54 118.76 68.71 C 120.32 62.58 120.90 56.22 122.07 50.00 C 124.72 50.00 127.36 50.00 130.00 50.00 C 130.00 59.00 130.00 68.00 130.00 77.00 C 128.32 77.00 126.64 77.00 124.96 77.00 C 125.40 69.23 125.28 61.45 125.59 53.69 C 123.98 61.42 122.71 69.23 121.22 76.99 C 119.70 77.00 118.19 77.00 116.68 77.01 C 115.21 69.18 113.82 61.33 112.24 53.52 C 112.65 61.34 112.20 69.17 112.78 76.98 C 111.18 76.99 109.59 77.00 108.00 77.01 C 108.00 68.01 108.00 59.00 108.00 50.00 Z" />
<path fill="#ef4f2a" d=" M 137.53 50.02 C 139.38 50.01 141.24 50.00 143.10 49.99 C 144.73 59.00 146.41 68.00 148.05 77.00 C 146.39 77.00 144.73 77.00 143.08 77.00 C 142.89 75.68 142.70 74.36 142.51 73.04 C 141.00 73.02 139.49 73.00 137.98 72.99 C 137.73 74.32 137.47 75.66 137.23 77.00 C 135.60 77.00 133.98 77.00 132.37 77.00 C 134.09 68.01 135.79 59.01 137.53 50.02 Z" />
<path fill="#ef4f2a" d=" M 150.00 50.01 C 153.87 50.11 157.83 49.58 161.64 50.46 C 164.89 51.92 163.86 56.20 164.03 59.05 C 164.33 61.49 162.88 63.44 160.97 64.75 C 162.31 68.83 163.60 72.93 164.96 77.00 C 163.24 77.00 161.53 77.00 159.82 77.00 C 158.31 72.77 158.34 67.72 155.20 64.28 C 154.87 68.51 155.02 72.76 155.00 77.00 C 153.33 77.00 151.67 77.00 150.00 77.00 C 150.00 68.00 150.00 59.01 150.00 50.01 Z" />
<path fill="#494646" d=" M 32.73 50.62 C 37.39 56.52 44.18 60.08 50.88 63.14 C 49.67 67.56 47.77 72.11 43.87 74.81 C 40.64 76.99 36.95 78.70 33.06 79.17 C 28.63 78.89 24.37 76.95 20.87 74.28 C 17.33 71.58 15.68 67.29 14.54 63.14 C 21.27 60.08 27.97 56.44 32.73 50.62 Z" />
<path fill="#ffffff" d=" M 155.05 53.45 C 156.29 53.66 157.53 53.91 158.75 54.22 C 159.12 56.18 159.10 58.19 158.95 60.17 C 157.85 61.05 156.32 60.94 155.02 61.30 C 154.99 58.68 155.00 56.06 155.05 53.45 Z" />
<path fill="#ffffff" d=" M 138.54 69.00 C 139.17 65.05 139.69 61.09 140.34 57.15 C 140.88 61.10 141.43 65.05 141.93 69.00 C 141.08 69.00 139.39 69.00 138.54 69.00 Z" />
</svg>
